<?xml version="1.0" encoding="UTF-8" standalone="no"?><!DOCTYPE svg PUBLIC "-//W3C//DTD SVG 1.1//EN" "http://www.w3.org/Graphics/SVG/1.1/DTD/svg11.dtd"><svg width="100%" height="100%" viewBox="0 0 250 250" version="1.1" xmlns="http://www.w3.org/2000/svg" xmlns:xlink="http://www.w3.org/1999/xlink" xml:space="preserve" xmlns:serif="http://www.serif.com/" style="fill-rule:evenodd;clip-rule:evenodd;stroke-linejoin:round;stroke-miterlimit:2;"><g><path d="M245.832,12.501l-29.167,0l-0,-8.333c-0,-2.301 -1.866,-4.167 -4.167,-4.167l-41.666,0c-2.301,0 -4.167,1.866 -4.167,4.167l0,8.333l-162.498,0c-2.301,0 -4.167,1.866 -4.167,4.166l-0,16.667c-0,2.303 1.866,4.167 4.167,4.167l12.5,-0l-0,79.166c-0,2.303 1.865,4.166 4.166,4.166c2.301,0 4.167,1.866 4.167,4.167c-0,2.303 -1.866,4.167 -4.167,4.167c-2.301,-0 -4.166,-1.864 -4.166,-4.167l-8.334,0c0.012,3.049 1.146,5.99 3.188,8.256l-10.687,14.246l0.053,0.04c-0.557,0.7 -0.869,1.565 -0.887,2.458l0,16.666c0,1.107 0.44,2.165 1.221,2.946l8.333,8.334c0.781,0.781 1.841,1.22 2.946,1.22l16.667,0c1.104,0 2.164,-0.439 2.945,-1.22l8.334,-8.334c0.781,-0.781 1.22,-1.839 1.22,-2.946l0,-16.666c-0.018,-0.893 -0.329,-1.758 -0.887,-2.458l0.053,-0.04l-10.687,-14.246c2.783,-3.092 3.833,-7.373 2.798,-11.401c-1.034,-4.028 -4.016,-7.272 -7.943,-8.641l-0,-75.713l141.665,-0l0,4.166c0,2.303 1.866,4.167 4.167,4.167l8.333,-0l0,195.832l-16.666,-0l-0,-166.665l-8.334,-0l0,16.666l-24.999,-0l-0,-8.333l-8.334,-0l0,8.333l-24.999,-0l-0,-4.166l-8.334,-0l0,4.166l-25,-0l0,-12.5l54.167,0l-0,-8.333l-54.167,-0l0,-16.667l-8.333,0l0,187.499l-6.608,-0l-19.612,-19.611c-1.628,-1.627 -4.265,-1.627 -5.892,0l-19.613,19.611l-2.441,-0l0,8.333l249.998,-0l0,-8.333l-3.249,-0c2.931,-3.2 3.973,-7.705 2.745,-11.87c-1.228,-4.162 -4.546,-7.38 -8.747,-8.479c2.118,-5.223 0.482,-11.214 -3.998,-14.634c-4.477,-3.42 -10.691,-3.42 -15.169,-0c-4.48,3.42 -6.116,9.411 -3.997,14.634c-4.202,1.099 -7.52,4.317 -8.747,8.479c-1.228,4.165 -0.187,8.67 2.745,11.87l-7.416,-0l-0,-195.832l8.333,-0c2.301,-0 4.167,-1.864 4.167,-4.167l-0,-4.166l29.167,-0c2.301,-0 4.166,-1.864 4.166,-4.167l0,-16.667c0,-2.3 -1.865,-4.166 -4.166,-4.166Zm-222.915,124.999l6.25,8.333l-16.667,0l6.25,-8.333l4.167,-0Zm10.416,27.443l-5.892,5.89l-13.216,-0l-5.892,-5.89l0,-10.776l25,-0l0,10.776Zm194.582,-144.109l-11.25,7.502l-0,-7.502l11.25,-0Zm-52.916,-12.5l16.666,0l-0,16.667l-16.666,-0l-0,-16.667Zm-112.5,13.334l11.251,7.499l-22.501,0l11.25,-7.499Zm-25,6.668l-11.25,-7.502l22.501,-0l-11.251,7.502Zm38.749,-7.502l22.502,-0l-11.251,7.502l-11.251,-7.502Zm36.251,0.834l11.251,7.499l-22.502,0l11.251,-7.499Zm13.749,-0.834l22.502,-0l-11.251,7.502l-11.251,-7.502Zm-117.915,-0l2.918,-0l12.499,8.333l-15.417,0l0,-8.333Zm142.915,8.333l12.5,-8.333l2.917,-0l0,8.333l-15.417,0Zm44.584,198.75l-7.499,-11.251l7.499,-11.249l-0,22.5Zm-0,-99.999l-7.499,-11.251l7.499,-11.249l-0,22.5Zm-8.334,2.5l7.5,11.249l-7.5,11.25l0,-22.499Zm0,-27.5l0,-22.5l7.5,11.249l-7.5,11.251Zm0,77.5l7.5,11.248l-7.5,11.251l0,-22.499Zm8.334,-2.525l-7.499,-11.227l7.499,-11.248l-0,22.475Zm-7.499,-111.226l7.499,-11.249l-0,22.5l-7.499,-11.251Zm-0.835,-13.749l0,-7.084l4.716,-0l-4.716,7.084Zm-33.333,47.082l0,41.667l-24.999,-0l-0,-41.667l24.999,0Zm-33.333,0l0,35.834l-9.582,-9.471c-0.777,-0.767 -1.825,-1.201 -2.917,-1.204l-12.5,-0l-0,-25.159l24.999,0Zm-33.333,0l0,6.946l-25,-0l0,-6.946l25,0Zm-62.499,130.891l10.774,10.775l-21.549,-0l10.775,-10.775Zm37.499,10.775l0,-126.387l25,0l0,14.063c0,2.303 1.866,4.166 4.167,4.166l14.953,0l15.463,15.289c0.777,0.768 1.825,1.201 2.917,1.203l29.166,-0l0,91.666l-91.666,-0Zm124.999,-11.249l7.5,11.249l-7.5,-0l0,-11.249Zm50,7.082c-2.301,-0 -4.166,-1.864 -4.166,-4.166c-0,-2.301 1.865,-4.167 4.166,-4.167c2.301,0 4.167,1.866 4.167,4.167c-0,2.302 -1.866,4.166 -4.167,4.166Zm-8.333,-25c2.301,0 4.167,1.866 4.167,4.167c-0,2.303 -1.866,4.167 -4.167,4.167c-2.301,-0 -4.167,-1.864 -4.167,-4.167c0,-2.301 1.866,-4.167 4.167,-4.167Zm-8.333,16.667c2.301,0 4.166,1.866 4.166,4.167c0,2.302 -1.865,4.166 -4.166,4.166c-2.301,-0 -4.167,-1.864 -4.167,-4.166c-0,-2.301 1.866,-4.167 4.167,-4.167Zm-12.5,-191.665l-33.333,-0l-0,-4.167l20.833,-0c2.301,-0 4.166,-1.864 4.166,-4.167l0,-20.833l8.334,0l-0,29.167Zm22.082,-8.334l11.251,-7.499l-0,7.499l-11.251,0Z" style="fill:#525252;fill-rule:nonzero;"/><g><rect x="70.833" y="141.667" width="8.333" height="8.333" style="fill:#525252;"/><rect x="87.499" y="141.667" width="8.333" height="8.333" style="fill:#525252;"/><rect x="104.166" y="141.667" width="8.333" height="8.333" style="fill:#525252;"/><rect x="70.833" y="158.333" width="8.333" height="8.333" style="fill:#525252;"/><rect x="87.499" y="158.333" width="8.333" height="8.333" style="fill:#525252;"/><rect x="104.166" y="158.333" width="8.333" height="8.333" style="fill:#525252;"/><rect x="120.832" y="158.333" width="8.333" height="8.333" style="fill:#525252;"/><rect x="137.499" y="158.333" width="8.333" height="8.333" style="fill:#525252;"/><rect x="70.833" y="174.999" width="8.333" height="8.333" style="fill:#525252;"/><rect x="87.499" y="174.999" width="8.333" height="8.333" style="fill:#525252;"/><rect x="104.166" y="174.999" width="8.333" height="8.333" style="fill:#525252;"/><rect x="120.832" y="174.999" width="8.333" height="8.333" style="fill:#525252;"/><rect x="137.499" y="174.999" width="8.333" height="8.333" style="fill:#525252;"/><rect x="70.833" y="191.666" width="8.333" height="8.333" style="fill:#525252;"/><rect x="87.499" y="191.666" width="8.333" height="8.333" style="fill:#525252;"/><rect x="104.166" y="191.666" width="8.333" height="8.333" style="fill:#525252;"/><rect x="120.832" y="191.666" width="8.333" height="8.333" style="fill:#525252;"/><rect x="137.499" y="191.666" width="8.333" height="8.333" style="fill:#525252;"/><rect x="70.833" y="208.333" width="8.333" height="8.333" style="fill:#525252;"/><rect x="87.499" y="208.333" width="8.333" height="8.333" style="fill:#525252;"/><rect x="104.166" y="208.333" width="8.333" height="8.333" style="fill:#525252;"/><rect x="120.832" y="208.333" width="8.333" height="8.333" style="fill:#525252;"/><rect x="137.499" y="208.333" width="8.333" height="8.333" style="fill:#525252;"/><rect x="70.833" y="224.999" width="8.333" height="8.333" style="fill:#525252;"/><rect x="87.499" y="224.999" width="8.333" height="8.333" style="fill:#525252;"/><rect x="104.166" y="224.999" width="8.333" height="8.333" style="fill:#525252;"/><rect x="120.832" y="224.999" width="8.333" height="8.333" style="fill:#525252;"/><rect x="137.499" y="224.999" width="8.333" height="8.333" style="fill:#525252;"/></g></g></svg>