<?xml version="1.0" encoding="UTF-8" standalone="no"?><!DOCTYPE svg PUBLIC "-//W3C//DTD SVG 1.1//EN" "http://www.w3.org/Graphics/SVG/1.1/DTD/svg11.dtd"><svg width="100%" height="100%" viewBox="0 0 250 250" version="1.1" xmlns="http://www.w3.org/2000/svg" xmlns:xlink="http://www.w3.org/1999/xlink" xml:space="preserve" xmlns:serif="http://www.serif.com/" style="fill-rule:evenodd;clip-rule:evenodd;stroke-linejoin:round;stroke-miterlimit:2;"><g><g><path d="M68.548,108.871c0,2.227 -1.805,4.032 -4.032,4.032c-2.227,0 -4.032,-1.805 -4.032,-4.032c-0,-2.227 1.805,-4.032 4.032,-4.032c2.227,-0 4.032,1.805 4.032,4.032Z" style="fill:#525252;fill-rule:nonzero;"/><path d="M108.871,108.871c-0,2.227 -1.805,4.032 -4.032,4.032c-2.227,0 -4.033,-1.805 -4.033,-4.032c0,-2.227 1.806,-4.032 4.033,-4.032c2.227,-0 4.032,1.805 4.032,4.032Z" style="fill:#525252;fill-rule:nonzero;"/><path d="M100.806,137.097l-8.064,-0c-0,4.447 -3.617,8.064 -8.065,8.064c-4.447,0 -8.064,-3.617 -8.064,-8.064l-8.065,-0c0,8.895 7.234,16.129 16.129,16.129c8.896,-0 16.129,-7.234 16.129,-16.129Z" style="fill:#525252;fill-rule:nonzero;"/><path d="M241.935,145.161l0,-64.516l-32.258,0l0,-32.258l-8.064,0l-0,-32.258l-8.065,0l0,-16.129l-56.451,0l-0,16.129l-8.065,0l0,28.441c-10.031,-10.087 -23.912,-16.344 -39.226,-16.344c-14.786,-0 -28.684,5.759 -39.141,16.214l-4.302,4.301c-12.919,3.17 -22.169,14.86 -22.169,28.272l-0,43.955c-0,10.303 7.798,18.73 17.786,19.919c2.918,10.504 9.593,19.445 18.504,25.27l-0,8.354l-41.181,13.735c-11.549,3.843 -19.303,14.605 -19.303,26.771l-0,34.983l169.355,-0l-0,-34.983c-0,-12.17 -7.754,-22.931 -19.299,-26.775l-41.185,-13.731l-0,-5.156l133.064,-0c4.448,-0 8.065,-3.617 8.065,-8.065l0,-8.064c0,-4.448 -3.617,-8.065 -8.065,-8.065Zm-32.258,0l0,-40.322l24.194,-0l-0,40.322l-24.194,0Zm-32.258,0l-16.129,0l0,-32.258l16.129,0l0,32.258Zm-24.193,-40.322l-0,40.322l-27.275,0c0.545,-1.392 1.02,-2.819 1.423,-4.274c9.988,-1.189 17.787,-9.616 17.787,-19.919l0,-24.194l48.387,0l0,-32.258l-51.842,0c-1.032,-2.798 -2.25,-5.499 -3.701,-8.064l63.608,-0l-0,88.709l-16.129,0l-0,-40.322l-32.258,-0Zm-24.194,4.774c4.686,1.67 8.065,6.106 8.065,11.355c-0,5.31 -3.463,9.785 -8.234,11.408c0.085,-1.109 0.169,-2.216 0.169,-3.344l0,-19.419Zm56.452,-37.032l-0,16.129l-16.129,-0l-0,-16.129l16.129,-0Zm-24.194,16.129l-16.129,-0l0,-5.129c0,-3.766 -0.384,-7.444 -1.104,-11l17.233,-0l0,16.129Zm16.129,-40.323l-8.064,0l-0,-8.064l8.064,-0l0,8.064Zm-16.129,0l-8.064,0l-0,-8.064l8.064,-0l0,8.064Zm72.581,40.323l-0,8.064l-24.194,0l0,-8.064l24.194,-0Zm-88.71,-80.645l40.323,-0l-0,8.064l-40.323,0l0,-8.064Zm48.387,16.129l0,24.193l-8.064,0l-0,-16.129l-40.323,0l0,16.129l-8.064,0l-0,-24.193l56.451,-0Zm-161.29,96.774c0,-5.249 3.383,-9.685 8.065,-11.355l-0,19.419c-0,1.128 0.084,2.235 0.169,3.344c-4.771,-1.623 -8.234,-6.098 -8.234,-11.408Zm8.065,-37.415l-0,17.661c-2.997,0.612 -5.71,1.943 -8.065,3.725l0,-27.93c0,-9.996 7.118,-18.679 16.918,-20.638l1.2,-0.242l5.991,-5.991c8.931,-8.927 20.811,-13.848 33.439,-13.848c26.076,0 47.291,21.215 47.291,47.291l-0,21.362c-2.355,-1.782 -5.068,-3.117 -8.065,-3.725l0,-17.661l-5.005,1.244c-0.159,0.034 -16.006,3.909 -39.35,3.909c-23.342,-0 -39.19,-3.875 -39.345,-3.917l-5.009,-1.24Zm8.064,45.479l0,-35.367c6.661,1.235 19.549,3.109 36.29,3.109c16.742,0 29.63,-1.874 36.291,-3.109l-0,35.367c-0,20.012 -16.283,36.291 -36.291,36.291c-20.007,-0 -36.29,-16.279 -36.29,-36.291Zm36.29,44.355c5.694,0 11.121,-1.116 16.129,-3.081l0,5.444l-16.129,16.129l-16.129,-16.129l0,-5.444c5.009,1.965 10.435,3.081 16.129,3.081Zm-4.648,52.419l9.297,0l2.69,16.129l-14.677,0l2.69,-16.129Zm10.555,-8.064l-11.813,-0l-4.283,-6.422l10.189,-8.49l10.189,8.49l-4.282,6.422Zm-27.157,-35.71l15.279,15.279l-16.263,13.552l-8.547,-25.653l9.531,-3.178Zm-55.362,32.985c-0,-8.69 5.54,-16.379 13.786,-19.126l24.39,-8.129l12.288,36.859l9.734,-8.109l4.117,6.174l-3.215,19.249l-61.1,0l-0,-26.918Zm153.225,0l0,26.918l-61.1,0l-3.211,-19.249l4.117,-6.174l9.734,8.109l12.288,-36.859l24.39,8.129c8.242,2.751 13.782,10.436 13.782,19.126Zm-45.827,-29.807l-8.547,25.653l-16.263,-13.552l15.278,-15.279l9.532,3.178Zm126.472,-23.92l-126.911,0c2.561,-2.411 4.847,-5.109 6.778,-8.064l120.133,-0l0,8.064Z" style="fill:#525252;fill-rule:nonzero;"/></g></g></svg>