<?xml version="1.0" encoding="UTF-8" standalone="no"?><!DOCTYPE svg PUBLIC "-//W3C//DTD SVG 1.1//EN" "http://www.w3.org/Graphics/SVG/1.1/DTD/svg11.dtd"><svg width="100%" height="100%" viewBox="0 0 250 250" version="1.1" xmlns="http://www.w3.org/2000/svg" xmlns:xlink="http://www.w3.org/1999/xlink" xml:space="preserve" xmlns:serif="http://www.serif.com/" style="fill-rule:evenodd;clip-rule:evenodd;stroke-linejoin:round;stroke-miterlimit:2;"><g><path d="M64.367,40.808c-0,-13.311 -10.826,-24.137 -24.138,-24.137c-13.312,-0 -24.137,10.826 -24.137,24.137c-0,13.312 10.825,24.138 24.137,24.138c13.312,-0 24.138,-10.826 24.138,-24.138Zm-40.23,0c0,-8.874 7.218,-16.091 16.092,-16.091c8.875,-0 16.092,7.217 16.092,16.091c-0,8.875 -7.217,16.092 -16.092,16.092c-8.874,0 -16.092,-7.217 -16.092,-16.092Z" style="fill:#525252;fill-rule:nonzero;"/><g><path d="M222.411,21.896l-5.689,5.688l5.689,5.688l5.688,-5.688l-5.688,-5.688Z" style="fill:#525252;"/></g><g><path d="M211.031,33.27l-5.688,5.689l5.688,5.688l5.689,-5.688l-5.689,-5.689Z" style="fill:#525252;"/></g><g><path d="M199.656,44.649l-5.401,5.401l5.688,5.688l5.401,-5.401l-5.688,-5.688Z" style="fill:#525252;"/></g><path d="M237.352,169.542l-22.315,-0c6.714,-13.706 10.246,-28.865 10.246,-44.252c0,-20.437 -6.099,-39.904 -17.544,-56.627c3.038,-2.12 6.002,-4.345 8.887,-6.682l24.749,24.745l8.625,-8.625l-12.069,-36.21l1.288,-1.288c3.986,-3.978 6.179,-9.273 6.179,-14.913c-0,-11.626 -9.462,-21.088 -21.092,-21.088c-5.628,0 -10.927,2.193 -14.913,6.171l-1.296,1.296l-36.202,-12.069l-8.621,8.625l24.749,24.749c-2.341,2.881 -4.562,5.849 -6.682,8.883c-16.727,-11.441 -36.194,-17.54 -56.631,-17.54c-15.548,-0 -30.871,3.608 -44.69,10.463c-2.752,-19.519 -19.523,-34.601 -39.791,-34.601c-22.182,0 -40.229,18.047 -40.229,40.229l-0,1.107c-0,7.965 2.337,15.681 6.758,22.315l21.591,32.384c-2.759,9.273 -4.212,18.904 -4.212,28.676c0,12.535 2.273,24.684 6.731,36.206l-2.708,-0c-6.653,-0 -12.068,5.415 -12.068,12.069c-0,5.237 3.375,9.663 8.045,11.328l0,8.786l-24.137,0l-0,13.473c-0,23.627 19.221,42.848 42.848,42.848l44.53,0c16.53,0 31.471,-9.647 38.543,-24.17c12.105,-0.14 23.848,-2.385 35,-6.698l-0,18.799c-0,6.654 5.414,12.069 12.068,12.069l64.367,0c6.654,0 12.069,-5.415 12.069,-12.069l-0,-56.321c-0.004,-6.653 -5.419,-12.068 -12.073,-12.068Zm-44.252,8.046l24.137,-0l0,8.045l-24.137,0l-0,-8.045Zm12.833,-8.046l-44.96,-0c2.329,-12.166 3.709,-25.763 3.926,-40.229l52.206,-0c-0.612,14.108 -4.438,27.886 -11.172,40.229Zm-77.324,47.462l0.124,-7.233l-17.628,-0l-12.829,-25.662c2.582,-1.412 4.578,-3.717 5.58,-6.521l47.112,-0c-5.439,21.667 -13.907,35.989 -22.359,39.416Zm-24.753,-47.462c-1.36,-3.814 -4.558,-6.743 -8.549,-7.692c-1.625,-10.343 -2.527,-21.253 -2.7,-32.537l64.246,-0c-0.229,14.872 -1.721,28.43 -4.079,40.229l-48.918,-0Zm-71.52,-48.275c0.254,-5.922 1.01,-11.783 2.374,-17.508c1.669,0.913 3.556,1.416 5.519,1.416c3.866,0 7.455,-1.923 9.603,-5.137l12.664,-19l25.952,-0c-2.329,12.165 -3.709,25.762 -3.927,40.229l-52.185,-0Zm64.335,-40.229l56.131,-0c2.438,12.302 3.798,25.996 4.019,40.229l-64.218,-0c0.234,-14.869 1.706,-28.438 4.068,-40.229Zm28.039,-48.275c7.149,-0 14.503,8.094 20.405,22.182l-3.058,3.057l5.246,2.623c1.368,3.882 2.611,7.998 3.701,12.367l-52.527,-0c6.288,-24.987 16.602,-40.229 26.233,-40.229Zm44.574,29.858l-13.645,-6.823l2.49,-2.486l14.136,3.532c-1.038,1.899 -2.019,3.83 -2.981,5.777Zm-3.379,7.305c-0.032,0.073 -0.068,0.145 -0.101,0.218c-0.394,0.913 -0.603,1.874 -0.728,2.848l-5.817,-0c-0.595,-2.523 -1.243,-4.965 -1.927,-7.35l8.573,4.284Zm51.175,51.341l-52.213,-0c-0.213,-14.153 -1.537,-27.811 -3.894,-40.229l6.372,-0c1.963,2.433 4.928,4.023 8.291,4.023c1.449,-0 2.865,-0.29 4.216,-0.865c0.077,-0.033 0.145,-0.069 0.222,-0.101l11.924,23.848l13.601,-13.606l-5.206,-20.826c0.218,-0.133 0.427,-0.278 0.644,-0.415c9.812,14.31 15.303,30.804 16.043,48.171Zm-23.924,-43.532l3.532,14.136l-2.49,2.486l-6.823,-13.645c1.951,-0.958 3.882,-1.939 5.781,-2.977Zm47.06,-3.544l-17.451,-17.452c2.023,-1.822 4.011,-3.689 5.942,-5.624l2.86,-2.86l8.649,25.936Zm-15.91,-61.543c7.193,0 13.046,5.849 13.046,13.042c-0,3.488 -1.356,6.763 -3.822,9.225l-10.512,10.512c-13.368,13.368 -28.961,23.924 -46.328,31.37c-1.701,0.717 -3.705,-0.611 -3.705,-2.433c0,-0.362 0.073,-0.717 0.214,-1.05c7.45,-17.375 18.002,-32.964 31.37,-46.336l10.508,-10.512l0,0.004c2.47,-2.466 5.749,-3.822 9.229,-3.822Zm-48.493,-2.864l25.932,8.645l-2.86,2.864c-1.935,1.935 -3.802,3.923 -5.624,5.942l-17.448,-17.451Zm0.672,39.823l-20.822,-5.21l-4.418,4.417c-2.643,-5.741 -5.567,-10.536 -8.717,-14.281c12.294,2.385 23.916,7.253 34.376,14.426c-0.141,0.221 -0.286,0.43 -0.419,0.648Zm-96.192,-5.456c8.404,-4.606 17.464,-7.884 26.857,-9.695c-7.096,8.408 -12.982,21.825 -16.976,38.536l-22.315,-0l5.841,-8.762c4.003,-6.006 6.195,-12.914 6.593,-20.079Zm-72.247,-2.236l-0,-1.107c-0,-17.745 14.438,-32.183 32.183,-32.183c17.745,0 32.183,14.438 32.183,32.183l0,1.107c0,6.376 -1.87,12.547 -5.406,17.853l-23.872,35.804c-1.3,1.947 -4.514,1.947 -5.813,0l-23.872,-35.804c-3.533,-5.302 -5.403,-11.477 -5.403,-17.853Zm24.242,87.398l52.274,-0c0.169,11.127 1.026,21.908 2.562,32.183l-47.555,-0c-4.356,-10.226 -6.806,-21.02 -7.281,-32.183Zm-4.128,40.229l64.367,-0c2.217,-0 4.023,1.802 4.023,4.023c-0,2.22 -1.806,4.023 -4.023,4.023l-64.367,-0c-2.216,-0 -4.023,-1.803 -4.023,-4.023c0,-2.221 1.807,-4.023 4.023,-4.023Zm4.023,16.091l57.858,0l12.069,24.138l-55.372,-0l-8.046,-16.092l-6.509,0l0,-8.046Zm55.195,56.321l-44.53,0c-19.189,0 -34.802,-15.613 -34.802,-34.802l-0,-5.427l25.674,0l8.046,16.092l78.74,-0c-4.598,14.269 -18.058,24.137 -33.128,24.137Zm54.888,-25.827c7.097,-8.408 12.986,-21.828 16.981,-38.539l2.41,-0c-0.451,1.263 -0.74,2.606 -0.74,4.022l-0,28.817c-6.035,2.574 -12.262,4.477 -18.651,5.7Zm99.109,21.804c-0,2.221 -1.806,4.023 -4.023,4.023l-64.367,0c-2.216,0 -4.023,-1.802 -4.023,-4.023l0,-56.321c0,-2.22 1.807,-4.022 4.023,-4.022l12.069,-0l0,16.091l40.229,0l0,-16.091l12.069,-0c2.217,-0 4.023,1.802 4.023,4.022l-0,56.321Z" style="fill:#525252;fill-rule:nonzero;"/><rect x="225.283" y="225.863" width="8.046" height="8.046" style="fill:#525252;"/><rect x="209.192" y="225.863" width="8.046" height="8.046" style="fill:#525252;"/><rect x="64.367" y="193.679" width="8.046" height="8.046" style="fill:#525252;"/><rect x="80.458" y="193.679" width="8.046" height="8.046" style="fill:#525252;"/><rect x="48.275" y="193.679" width="8.046" height="8.046" style="fill:#525252;"/><rect x="104.596" y="137.358" width="8.046" height="8.046" style="fill:#525252;"/><rect x="136.779" y="137.358" width="8.046" height="8.046" style="fill:#525252;"/><rect x="120.687" y="137.358" width="8.046" height="8.046" style="fill:#525252;"/><rect x="136.779" y="105.175" width="8.046" height="8.046" style="fill:#525252;"/><rect x="120.687" y="105.175" width="8.046" height="8.046" style="fill:#525252;"/><rect x="104.596" y="105.175" width="8.046" height="8.046" style="fill:#525252;"/></g></svg>