<?xml version="1.0" encoding="UTF-8" standalone="no"?><!DOCTYPE svg PUBLIC "-//W3C//DTD SVG 1.1//EN" "http://www.w3.org/Graphics/SVG/1.1/DTD/svg11.dtd"><svg width="100%" height="100%" viewBox="0 0 250 250" version="1.1" xmlns="http://www.w3.org/2000/svg" xmlns:xlink="http://www.w3.org/1999/xlink" xml:space="preserve" xmlns:serif="http://www.serif.com/" style="fill-rule:evenodd;clip-rule:evenodd;stroke-linejoin:round;stroke-miterlimit:2;"><g><g><path d="M231.689,190.576l-6.566,0l0,-24.67c0,-3.365 -2.738,-6.103 -6.103,-6.103l-21.485,-0c-3.365,-0 -6.103,2.738 -6.103,6.103l-0,24.697c-0.139,-0.016 -0.28,-0.027 -0.424,-0.027l-20.716,0l0,-24.67c0,-3.365 -2.738,-6.103 -6.103,-6.103l-21.485,-0c-3.365,-0 -6.103,2.738 -6.103,6.103l-0,24.67l-12.143,0c-2.505,-2.795 -5.655,-4.999 -9.212,-6.383l-0.662,-16.354c5.355,-1.71 9.245,-6.732 9.245,-12.648l0,-27.468c0,-6.685 -4.968,-12.23 -11.406,-13.141l-0.623,-15.352l22.435,-24.561l18.768,25.029c2.362,3.147 5.755,5.053 9.357,5.595c1.423,8.932 9.178,15.781 18.505,15.781c5.427,0 10.575,-2.398 14.099,-6.415l7.566,3.729c-1.035,3.696 -1.008,7.73 0.317,11.631c1.694,4.99 5.23,9.022 9.957,11.352c2.755,1.359 5.722,2.044 8.706,2.044c2.136,-0 4.28,-0.351 6.361,-1.058c1.916,-0.65 2.941,-2.73 2.291,-4.645c-0.651,-1.916 -2.732,-2.941 -4.645,-2.29c-3.138,1.065 -6.503,0.844 -9.474,-0.621c-2.972,-1.464 -5.196,-3.999 -6.261,-7.137c-2.199,-6.476 1.281,-13.535 7.757,-15.734c3.138,-1.065 6.503,-0.845 9.474,0.62c2.972,1.465 5.195,4 6.261,7.137c0.65,1.915 2.731,2.94 4.645,2.291c1.915,-0.65 2.94,-2.731 2.29,-4.646c-1.694,-4.99 -5.23,-9.021 -9.957,-11.351c-4.727,-2.331 -10.078,-2.681 -15.067,-0.986c-3.899,1.323 -7.113,3.755 -9.414,6.824l-7.148,-3.522c0.641,-1.912 0.978,-3.925 0.978,-5.963c-0,-7.012 -3.817,-13.253 -9.791,-16.475c0.584,-3.38 -0.04,-6.977 -2.018,-10.111l-22.704,-36.031c3.349,-6.993 1.967,-15.546 -3.669,-21.132l-13.338,-13.212c-7.075,-7.014 -18.335,-7.191 -25.63,-0.402l-53.652,49.932l-17.348,-0c-17.302,-0 -31.404,13.541 -32.107,30.827l-1.177,28.984c-6.052,1.233 -10.621,6.597 -10.621,13.009l0,27.468c0,5.629 3.524,10.448 8.48,12.375l-0.676,16.627c-8.971,3.491 -15.35,12.215 -15.35,22.406l0,37.304c0,3.366 2.738,6.103 6.103,6.103l118.39,0c3.365,0 6.103,-2.737 6.103,-6.103l0,-3.102l84.228,-0c2.023,-0 3.663,-1.64 3.663,-3.662c-0,-2.023 -1.64,-3.663 -3.663,-3.663l-84.228,0l0,-26.877c0,-3.068 -0.584,-6 -1.636,-8.699l102.729,0c6.058,0 10.987,4.929 10.987,10.987l-0,13.603c-0,6.058 -4.929,10.987 -10.987,10.987l-2.216,-0c-2.023,-0 -3.663,1.64 -3.663,3.662c0,2.023 1.639,3.662 3.663,3.662l2.216,0c10.097,0 18.311,-8.213 18.311,-18.31l0,-13.604c0,-10.097 -8.214,-18.311 -18.311,-18.311Zm-44.951,-98.036c3.393,2.022 5.538,5.691 5.538,9.794c-0,2.053 -0.55,4.064 -1.593,5.818c-2.079,3.505 -5.75,5.598 -9.819,5.598c-5.557,0 -10.197,-3.992 -11.209,-9.259c1.031,-0.399 2.032,-0.922 2.982,-1.576l11.154,-7.676c1.131,-0.78 2.114,-1.692 2.947,-2.699Zm-5.143,-12.885c1.335,2.115 1.409,4.656 0.413,6.761c-0.015,0.032 -0.031,0.064 -0.045,0.098c-0.516,1.047 -1.294,1.982 -2.325,2.692l-11.152,7.675c-0.973,0.669 -2.054,1.062 -3.149,1.195c-0.007,0.001 -0.014,0.001 -0.021,0.002c-2.412,0.284 -4.893,-0.694 -6.454,-2.774l-19.6,-26.137l21.141,-23.145l21.192,33.633Zm-154.933,6.373c0.543,-13.347 11.431,-23.801 24.789,-23.801l27.695,-0c4.036,-0 7.886,0.938 11.441,2.79c1.795,0.934 4.006,0.237 4.94,-1.557c0.934,-1.794 0.237,-4.005 -1.557,-4.94c-4.429,-2.306 -9.409,-3.549 -14.426,-3.612l47.898,-44.576c4.408,-4.101 11.21,-3.995 15.484,0.243l13.339,13.213c4.206,4.169 4.462,11.008 0.388,15.48l-24.869,27.226c-0.007,0.008 -0.014,0.015 -0.021,0.022l-20.384,22.316l-0.126,-3.102c-0.235,-5.787 -2.025,-11.4 -5.176,-16.231c-1.105,-1.695 -3.375,-2.172 -5.068,-1.067c-1.694,1.105 -2.172,3.374 -1.067,5.068c2.431,3.727 3.812,8.058 3.993,12.527l1.154,28.42l-79.581,0l1.154,-28.419Zm-11.792,69.163l-0,-27.468c-0,-3.281 2.67,-5.952 5.951,-5.952l89.732,0c3.281,0 5.951,2.67 5.951,5.952l0,27.468c0,3.282 -2.669,5.951 -5.951,5.951l-89.732,0c-3.281,0.001 -5.951,-2.669 -5.951,-5.951Zm108.402,87.492l-115.948,-0l0,-36.083c0,-9.216 7.498,-16.714 16.714,-16.714l10.397,0c2.023,0 3.663,-1.64 3.663,-3.662c-0,-2.023 -1.64,-3.663 -3.663,-3.663c-11.394,0 -10.775,-0.013 -11.69,0.036l0.574,-14.13l83.96,-0l0.572,14.13c-0.986,-0.052 3.178,-0.036 -58.767,-0.036c-2.023,0 -3.663,1.64 -3.663,3.663c0,2.022 1.64,3.662 3.663,3.662l57.474,0c9.215,0 16.713,7.498 16.713,16.714c0.001,4.541 0.001,31.525 0.001,36.083Zm39.696,-52.108l-19.043,0l-0,-23.448l19.043,-0l-0,23.448Zm54.831,0l-19.043,0l-0,-23.448l19.043,-0l0,23.448Z" style="fill:#525252;fill-rule:nonzero;"/><path d="M150.978,216.341c-0,6.444 5.243,11.687 11.688,11.687c6.444,0 11.687,-5.243 11.687,-11.687c0,-6.445 -5.243,-11.688 -11.687,-11.688c-6.445,-0.001 -11.688,5.243 -11.688,11.688Zm16.051,-0c0,2.405 -1.957,4.363 -4.363,4.363c-2.406,0 -4.364,-1.958 -4.364,-4.363c0,-2.406 1.958,-4.364 4.364,-4.364c2.406,0 4.363,1.957 4.363,4.364Z" style="fill:#525252;fill-rule:nonzero;"/><path d="M202.297,216.341c-0,6.444 5.243,11.687 11.688,11.687c6.445,0 11.687,-5.243 11.687,-11.687c0,-15.447 -23.375,-15.447 -23.375,-0Zm11.688,4.363c-2.406,0 -4.364,-1.958 -4.364,-4.363c-0,-2.406 1.958,-4.364 4.364,-4.364c2.406,0 4.363,1.958 4.363,4.364c0,2.405 -1.957,4.363 -4.363,4.363Z" style="fill:#525252;fill-rule:nonzero;"/><path d="M65.298,72.11c-8.095,-0 -14.681,6.586 -14.681,14.681c-0,8.096 6.586,14.681 14.681,14.681c8.095,0 14.681,-6.586 14.681,-14.681c0,-8.095 -6.586,-14.681 -14.681,-14.681Zm0,22.038c-4.057,0 -7.357,-3.3 -7.357,-7.357c-0,-4.057 3.3,-7.357 7.357,-7.357c4.057,-0 7.357,3.3 7.357,7.357c0,4.057 -3.3,7.357 -7.357,7.357Z" style="fill:#525252;fill-rule:nonzero;"/><path d="M138.801,42.534c8.957,-4.227 8.271,-17.201 -0.991,-20.524c-9.358,-3.357 -18.003,6.335 -13.812,15.214c2.612,5.534 9.219,7.946 14.803,5.31Zm-8.32,-11.338c1.146,-3.193 5.571,-3.38 7.007,-0.339c0.893,1.893 0.08,4.161 -1.813,5.054c-3.028,1.429 -6.341,-1.518 -5.194,-4.715Z" style="fill:#525252;fill-rule:nonzero;"/><path d="M26.319,155.297l27.96,-0c2.022,-0 3.662,-1.64 3.662,-3.663l0,-19.305c0,-2.023 -1.64,-3.663 -3.662,-3.663l-27.96,0c-2.022,0 -3.662,1.64 -3.662,3.663l0,19.305c0,2.023 1.64,3.663 3.662,3.663Zm3.662,-19.306l20.636,-0l-0,11.982l-20.636,-0l0,-11.982Z" style="fill:#525252;fill-rule:nonzero;"/><path d="M71.489,138.045l1.495,-0c2.023,-0 3.662,-1.64 3.662,-3.663c0,-2.022 -1.639,-3.662 -3.662,-3.662l-1.495,0c-2.022,0 -3.662,1.64 -3.662,3.662c-0,2.023 1.64,3.663 3.662,3.663Z" style="fill:#525252;fill-rule:nonzero;"/><path d="M86.543,138.045l1.495,-0c2.023,-0 3.662,-1.64 3.662,-3.663c0,-2.022 -1.639,-3.662 -3.662,-3.662l-1.495,0c-2.022,0 -3.662,1.64 -3.662,3.662c-0,2.023 1.64,3.663 3.662,3.663Z" style="fill:#525252;fill-rule:nonzero;"/><path d="M101.598,138.045l1.495,-0c2.022,-0 3.662,-1.64 3.662,-3.663c-0,-2.022 -1.64,-3.662 -3.662,-3.662l-1.495,0c-2.023,0 -3.662,1.64 -3.662,3.662c-0,2.023 1.639,3.663 3.662,3.663Z" style="fill:#525252;fill-rule:nonzero;"/><path d="M71.489,152.194l1.495,0c2.023,0 3.662,-1.64 3.662,-3.662c0,-2.023 -1.639,-3.663 -3.662,-3.663l-1.495,0c-2.022,0 -3.662,1.64 -3.662,3.663c-0,2.022 1.64,3.662 3.662,3.662Z" style="fill:#525252;fill-rule:nonzero;"/><path d="M86.543,152.194l1.495,0c2.023,0 3.662,-1.64 3.662,-3.662c0,-2.023 -1.639,-3.663 -3.662,-3.663l-1.495,0c-2.022,0 -3.662,1.64 -3.662,3.663c-0,2.022 1.64,3.662 3.662,3.662Z" style="fill:#525252;fill-rule:nonzero;"/><path d="M101.598,152.194l1.495,0c2.022,0 3.662,-1.64 3.662,-3.662c-0,-2.023 -1.64,-3.663 -3.662,-3.663l-1.495,0c-2.023,0 -3.662,1.64 -3.662,3.663c-0,2.022 1.639,3.662 3.662,3.662Z" style="fill:#525252;fill-rule:nonzero;"/><path d="M30.09,208.709c-6.445,0 -11.688,5.243 -11.688,11.688c-0,6.445 5.243,11.688 11.688,11.688c6.445,0 11.688,-5.243 11.688,-11.688c-0,-6.444 -5.243,-11.688 -11.688,-11.688Zm0,16.052c-2.406,-0 -4.364,-1.958 -4.364,-4.364c0,-2.406 1.958,-4.364 4.364,-4.364c2.406,0 4.364,1.958 4.364,4.364c-0,2.406 -1.958,4.364 -4.364,4.364Z" style="fill:#525252;fill-rule:nonzero;"/><path d="M104.138,204.665l-0.884,-0l-0,-1.22c-0,-2.022 -1.64,-3.662 -3.663,-3.662c-2.022,0 -3.662,1.64 -3.662,3.662l0,1.22l-0.884,-0c-2.022,-0 -3.662,1.639 -3.662,3.662c-0,2.023 1.64,3.662 3.662,3.662l0.884,0l0,17.135c0,2.023 1.64,3.662 3.662,3.662c2.023,0 3.663,-1.639 3.663,-3.662l-0,-17.135l0.884,0c2.022,0 3.662,-1.639 3.662,-3.662c-0,-2.023 -1.64,-3.662 -3.662,-3.662Z" style="fill:#525252;fill-rule:nonzero;"/><path d="M84.388,217.915l-0.883,-0l-0,-14.47c-0,-2.023 -1.64,-3.662 -3.663,-3.662c-2.022,-0 -3.662,1.639 -3.662,3.662l-0,14.47l-0.884,-0c-2.022,-0 -3.662,1.64 -3.662,3.662c-0,2.023 1.64,3.663 3.662,3.663l0.884,-0l-0,3.884c-0,2.022 1.64,3.662 3.662,3.662c2.023,-0 3.663,-1.64 3.663,-3.662l-0,-3.884l0.883,-0c2.023,-0 3.663,-1.64 3.663,-3.663c-0.001,-2.022 -1.64,-3.662 -3.663,-3.662Z" style="fill:#525252;fill-rule:nonzero;"/><path d="M64.639,208.709l-0.884,0l-0,-5.264c-0,-2.023 -1.64,-3.662 -3.662,-3.662c-2.023,-0 -3.663,1.639 -3.663,3.662l0,5.264l-0.884,0c-2.022,0 -3.662,1.64 -3.662,3.663c0,2.022 1.64,3.662 3.662,3.662l0.884,-0l0,13.09c0,2.022 1.64,3.662 3.663,3.662c2.022,-0 3.662,-1.64 3.662,-3.662l-0,-13.09l0.884,-0c2.022,-0 3.662,-1.64 3.662,-3.662c0,-2.023 -1.64,-3.663 -3.662,-3.663Z" style="fill:#525252;fill-rule:nonzero;"/></g></g></svg>