<?xml version="1.0" encoding="UTF-8" standalone="no"?><!DOCTYPE svg PUBLIC "-//W3C//DTD SVG 1.1//EN" "http://www.w3.org/Graphics/SVG/1.1/DTD/svg11.dtd"><svg width="100%" height="100%" viewBox="0 0 250 250" version="1.1" xmlns="http://www.w3.org/2000/svg" xmlns:xlink="http://www.w3.org/1999/xlink" xml:space="preserve" xmlns:serif="http://www.serif.com/" style="fill-rule:evenodd;clip-rule:evenodd;stroke-linejoin:round;stroke-miterlimit:2;"><g><path d="M247.936,152.671l-0.058,-0.1c-5.496,-8.367 -16.532,-11.295 -25.453,-6.752l-26.695,13.651c-6.578,-9.236 -19.06,-12.29 -29.16,-7.136l-33.618,17.23c-3.556,1.832 -7.794,1.805 -11.327,-0.071l-22.912,-12.164c-17.654,-9.425 -39.192,-8.12 -55.58,3.366l-2.587,-12.339c-0.404,-1.922 -2.114,-3.31 -4.077,-3.31c-0.295,0 -0.588,0.032 -0.876,0.094l-32.306,6.969c-2.224,0.48 -3.665,2.697 -3.2,4.924l18.809,89.619c0.394,1.93 2.105,3.329 4.074,3.333c0.294,-0.002 0.587,-0.033 0.875,-0.092l32.323,-6.957c2.225,-0.479 3.667,-2.7 3.199,-4.928l-1.666,-8.019l11.043,-2.379c3.219,-0.688 6.532,-0.815 9.794,-0.375l51.939,5.695c10.781,1.426 21.719,-1.142 30.74,-7.215l83.203,-55.822c5.623,-3.806 7.197,-11.516 3.516,-17.222Zm-221.75,88.174l-17.08,-81.462l24.162,-5.208l17.08,81.467l-24.162,5.203Zm213.598,-77.859l-83.204,55.822c-7.375,4.947 -16.315,7.023 -25.115,5.832l-51.94,-5.695c-4.18,-0.563 -8.426,-0.394 -12.547,0.5l-11.006,2.366l-10.981,-52.247l2.845,-1.983c13.834,-9.735 32.042,-10.856 46.965,-2.891l22.912,12.164c5.938,3.156 13.062,3.204 19.042,0.129l33.627,-17.251c6.939,-3.546 15.555,-1.005 19.458,5.741c1.147,1.978 0.485,4.547 -1.475,5.724l-46.357,27.494c-8.102,4.832 -17.762,6.362 -26.961,4.27l-41.808,-9.998l-1.933,8.107l41.846,9.998c11.291,2.587 23.155,0.719 33.105,-5.212l46.357,-27.494c3.862,-2.318 6.183,-6.55 6.062,-11.052l27.527,-14.085c5.135,-2.607 11.481,-0.932 14.66,3.87l0.046,0.071c1.239,1.916 0.739,4.504 -1.125,5.82Z" style="fill:#525252;fill-rule:nonzero;"/><g><path d="M26.966,164.069l-8.154,1.713l1.711,8.146l8.154,-1.713l-1.711,-8.146Z" style="fill:#525252;"/></g><path d="M122.521,157.516c1.458,1.063 3.448,1.063 4.907,0c41.8,-30.489 67.532,-59.562 76.88,-86.682l21.412,0c1.761,4.981 6.499,8.332 11.783,8.332c6.855,-0 12.497,-5.642 12.497,-12.498c0,-6.856 -5.642,-12.497 -12.497,-12.497c-5.284,-0 -10.022,3.35 -11.783,8.331l-19.096,0c0.71,-3.07 1.204,-6.187 1.479,-9.327c1.486,-12.777 -2.298,-25.624 -10.473,-35.555c-8.323,-11.089 -21.411,-17.62 -35.276,-17.605c-13.752,0.538 -26.927,5.704 -37.38,14.656c-10.452,-8.952 -23.628,-14.118 -37.38,-14.656c-13.866,-0.015 -26.957,6.517 -35.284,17.605c-8.171,9.933 -11.953,22.779 -10.469,35.555c2.512,32.014 29.657,67.124 80.68,104.341Zm114.93,-95.014c2.285,0 4.166,1.881 4.166,4.166c-0,2.286 -1.881,4.166 -4.166,4.166c-2.285,0 -4.166,-1.88 -4.166,-4.166c0,-2.285 1.881,-4.166 4.166,-4.166Zm-178.946,-39.312c0.194,-0.193 0.369,-0.405 0.52,-0.633c6.767,-8.944 17.355,-14.21 28.569,-14.21c19.305,-0 34.285,14.701 34.435,14.847c0.781,0.782 1.842,1.222 2.947,1.222c1.105,-0 2.167,-0.44 2.948,-1.222c0.15,-0.154 15.022,-14.847 34.43,-14.847c11.224,-0.042 21.83,5.233 28.569,14.21c0.152,0.228 0.326,0.44 0.521,0.633c6.671,8.215 9.693,18.816 8.356,29.315c-0.277,3.375 -0.848,6.721 -1.708,9.997l-33.209,0l-15.464,-27.077c-0.738,-1.304 -2.126,-2.113 -3.625,-2.113c-1.705,0 -3.246,1.047 -3.873,2.633l-20.6,51.552l-13.197,-42.882c-0.537,-1.744 -2.158,-2.942 -3.982,-2.942c-1.461,0 -2.819,0.769 -3.571,2.021l-11.285,18.808l-26.799,0l0,8.332l29.161,0c1.46,-0 2.818,-0.768 3.57,-2.02l7.677,-12.819l13.918,45.225c0.526,1.675 2.057,2.847 3.812,2.916l0.183,-0c1.702,0 3.239,-1.041 3.87,-2.621l21.788,-54.476l12.385,21.662c0.731,1.309 2.116,2.126 3.615,2.133l32.91,0c-7.711,19.629 -26.89,45.957 -70.402,78.146c-58.7,-43.424 -73.114,-76.196 -74.801,-96.142c-1.438,-10.605 1.58,-21.345 8.332,-29.648Z" style="fill:#525252;fill-rule:nonzero;"/><rect x="0" y="62.502" width="33.326" height="8.332" style="fill:#525252;"/></g></svg>