<?xml version="1.0" encoding="UTF-8" standalone="no"?><!DOCTYPE svg PUBLIC "-//W3C//DTD SVG 1.1//EN" "http://www.w3.org/Graphics/SVG/1.1/DTD/svg11.dtd"><svg width="100%" height="100%" viewBox="0 0 209 275" version="1.1" xmlns="http://www.w3.org/2000/svg" xmlns:xlink="http://www.w3.org/1999/xlink" xml:space="preserve" xmlns:serif="http://www.serif.com/" style="fill-rule:evenodd;clip-rule:evenodd;stroke-linejoin:round;stroke-miterlimit:2;"><g><path d="M161.011,197.202l-113.689,0c-2.196,0 -3.976,1.781 -3.976,3.977c-0,2.196 1.78,3.976 3.976,3.976l113.689,0c2.197,0 3.977,-1.78 3.977,-3.976c-0,-2.196 -1.781,-3.977 -3.977,-3.977Z" style="fill:#525252;fill-rule:nonzero;"/><path d="M164.988,218.403c-0,-2.196 -1.78,-3.976 -3.977,-3.976l-113.689,-0c-2.196,-0 -3.976,1.78 -3.976,3.976c-0,2.196 1.78,3.977 3.976,3.977l113.689,-0c2.196,-0 3.977,-1.781 3.977,-3.977Z" style="fill:#525252;fill-rule:nonzero;"/><path d="M63.953,231.652c-2.197,0 -3.977,1.781 -3.977,3.977c0,2.196 1.78,3.976 3.977,3.976l80.427,0c2.197,0 3.976,-1.78 3.976,-3.976c0,-2.196 -1.779,-3.977 -3.976,-3.977l-80.427,0Z" style="fill:#525252;fill-rule:nonzero;"/><path d="M165.305,96.917l23.891,-8.719c2.164,-0.79 3.561,-2.788 3.561,-5.091c0,-2.302 -1.398,-4.3 -3.561,-5.089l-78.794,-28.756c-4.02,-1.468 -8.449,-1.468 -12.471,-0l-78.793,28.755c-2.163,0.789 -3.561,2.787 -3.561,5.09c-0,2.304 1.397,4.301 3.56,5.091l23.892,8.719l0,47.003c0,3.1 1.368,6.042 3.463,8.02c2.076,1.957 4.377,3.8 6.867,5.523c-0,0 -0.001,0.002 -0.002,0.002c-2.675,2.626 -4.209,6.267 -4.209,9.99l-0,2.676c-0,1.18 0.37,2.303 1.015,3.235l-3.865,8.908c-0.873,2.015 0.051,4.357 2.066,5.231c2.013,0.873 4.356,-0.05 5.231,-2.066l3.641,-8.395c0.52,0.167 1.046,0.31 1.576,0.429l-0,8.952c-0,2.196 1.78,3.976 3.977,3.976c2.196,0 3.976,-1.78 3.976,-3.976l0,-8.952c0.53,-0.119 1.056,-0.262 1.575,-0.429l3.642,8.395c0.876,2.017 3.219,2.939 5.231,2.066c2.015,-0.874 2.94,-3.216 2.066,-5.231l-3.865,-8.908c0.645,-0.932 1.016,-2.055 1.016,-3.235l-0,-2.053c8.719,2.478 18.174,3.777 27.736,3.777c20.303,0 43.055,-6.126 57.676,-19.917c2.101,-1.983 3.462,-4.948 3.462,-8.019c0.001,-5.317 0.001,-41.614 0.001,-47.002Zm-64.647,-40.184c2.263,-0.826 4.755,-0.826 7.018,0l72.269,26.375c-1.344,0.49 -71.028,25.922 -72.269,26.375c-2.264,0.826 -4.756,0.825 -7.018,-0l-27.776,-10.137l22.979,-11.351l2.071,0.756c2.01,0.734 4.122,1.101 6.235,1.101c2.113,-0 4.226,-0.367 6.236,-1.101l3.667,-1.338c2.237,-0.816 3.739,-2.963 3.739,-5.343l-0,-2.929c-0,-7.382 -6.003,-13.5 -13.382,-13.639c-3.602,-0.066 -7.059,1.318 -9.692,3.903c-2.675,2.625 -4.209,6.266 -4.209,9.989l0,2.367c-29.007,14.327 -27.156,13.376 -27.869,13.853l-34.268,-12.506l72.269,-26.375Zm-2.18,23.751l0,-1.09c0,-1.602 0.666,-3.175 1.827,-4.315c1.096,-1.075 2.491,-1.646 3.971,-1.626c3.076,0.058 5.579,2.609 5.579,5.687l-0,1.344l-2.179,0.795c-2.263,0.826 -4.755,0.826 -7.018,0l-2.18,-0.795Zm-39.666,52.18c-2.507,-1.661 -4.809,-3.464 -6.863,-5.402c-0.615,-0.579 -0.967,-1.394 -0.967,-2.234l0,-25.207l7.836,2.86c-0.009,0.511 -0.006,-3.442 -0.006,29.983Zm-1.712,35.882c0,-1.131 -0.208,-3.407 1.827,-5.405c1.163,-1.142 2.612,-1.651 3.971,-1.626c4.083,0.077 5.579,2.963 5.579,7.031c-4.778,1.744 -5.633,2.096 -11.377,0Zm1.712,-16.992c-2.277,-1.509 -4.366,-3.127 -6.25,-4.841c-0.593,-0.539 -1.58,-1.266 -1.58,-2.793l-0,-7.071c2.413,1.84 5.041,3.536 7.83,5.094l0,9.611Zm14.725,7.262c-1.697,-2.182 -4.038,-3.834 -6.771,-4.665l-0,-8.357c8.381,3.495 17.834,5.828 27.761,6.731c2.192,0.196 4.122,-1.413 4.321,-3.601c0.199,-2.187 -1.413,-4.121 -3.6,-4.32c-10.387,-0.944 -20.162,-3.551 -28.483,-7.48l0,-31.544l31.166,11.374c1.962,0.716 4.097,1.101 6.235,1.101c2.189,-0 4.327,-0.404 6.235,-1.101l0.001,0l46.949,-17.133l-0,25.207c-0,0.84 -0.352,1.655 -0.967,2.234c-9.995,9.428 -25.777,15.75 -43.299,17.343c-2.187,0.199 -3.799,2.133 -3.6,4.32c0.199,2.187 2.131,3.8 4.32,3.6c16.864,-1.533 32.382,-7.165 43.546,-15.675l-0,7.07c-0,0.874 -0.389,1.69 -0.967,2.234c-13.21,12.461 -34.003,17.75 -52.217,17.75c-10.736,-0.001 -21.296,-1.758 -30.63,-5.088Z" style="fill:#525252;fill-rule:nonzero;"/><path d="M15.866,273.234l176.602,-0c8.748,-0 15.865,-7.117 15.865,-15.866l0,-108.469c0,-2.196 -1.78,-3.977 -3.976,-3.977c-2.197,0 -3.977,1.781 -3.977,3.977l0,108.469c0,4.363 -3.549,7.913 -7.912,7.913l-176.602,-0c-4.363,-0 -7.913,-3.55 -7.913,-7.913l0,-223.092l192.427,0l0,96.066c0,2.196 1.78,3.976 3.977,3.976c2.196,0 3.976,-1.78 3.976,-3.976l0,-112.71c0,-8.748 -7.116,-15.866 -15.865,-15.866l-176.602,0c-8.748,0 -15.866,7.117 -15.866,15.866l-0,239.736c-0,8.749 7.118,15.866 15.866,15.866Zm184.514,-255.602l0,8.691l-160.66,-0l-0,-16.604l152.748,0c4.361,0 7.912,3.549 7.912,7.913Zm-192.427,-0c0,-3.545 2.343,-6.553 5.563,-7.556c0.742,-0.232 1.532,-0.357 2.35,-0.357l15.901,0l0,16.604l-23.814,-0l0,-8.691Z" style="fill:#525252;fill-rule:nonzero;"/></g></svg>