<?xml version="1.0" encoding="UTF-8" standalone="no"?><!DOCTYPE svg PUBLIC "-//W3C//DTD SVG 1.1//EN" "http://www.w3.org/Graphics/SVG/1.1/DTD/svg11.dtd"><svg width="100%" height="100%" viewBox="0 0 250 250" version="1.1" xmlns="http://www.w3.org/2000/svg" xmlns:xlink="http://www.w3.org/1999/xlink" xml:space="preserve" xmlns:serif="http://www.serif.com/" style="fill-rule:evenodd;clip-rule:evenodd;stroke-linejoin:round;stroke-miterlimit:2;"><g><path d="M246.338,242.68l-60.877,-0l0,-14.659c0,-3.795 -3.088,-6.884 -6.884,-6.884l-6.973,0l-0,-15.834c-0,-3.147 -2.562,-5.708 -5.709,-5.708l-4.597,0l-17.004,-131.385l6.411,-0c4.616,-0 8.371,-3.755 8.371,-8.371l0,-14.204l39.122,4.201l-0,108.592c-0,1.309 0.698,2.518 1.832,3.172c1.117,0.644 2.514,0.663 3.664,-0.003c10.831,-6.268 19.538,-16.152 25.878,-29.379c0.874,-1.824 0.105,-4.011 -1.72,-4.885c-1.821,-0.875 -4.01,-0.106 -4.885,1.719c-4.554,9.5 -10.406,17.043 -17.445,22.505l-0,-117.619l23.593,-20.129c7.215,41.799 6.875,76.082 -1.015,101.929c-0.591,1.934 0.498,3.981 2.433,4.571c1.934,0.59 3.981,-0.498 4.572,-2.433c8.362,-27.392 8.65,-63.538 0.856,-107.434c-0.382,-2.151 -1.899,-3.946 -3.956,-4.684c-2.058,-0.738 -4.368,-0.316 -6.03,1.102l-25.149,21.455l-106.654,-20.797c-1.987,-0.387 -3.908,0.908 -4.295,2.893c-0.387,1.985 0.908,3.908 2.893,4.295l105.427,20.559l0,7.205c-5.879,-0.632 -166.936,-17.927 -172.369,-18.51l0.87,-1.583c6.104,-11.104 18.562,-16.934 30.999,-14.51l20.431,3.984c1.99,0.389 3.909,-0.908 4.296,-2.893c0.387,-1.985 -0.908,-3.908 -2.894,-4.295l-20.431,-3.985c-15.574,-3.037 -31.175,4.265 -38.819,18.171l-3.519,6.401c-0.59,1.074 -0.604,2.371 -0.038,3.457c0.567,1.087 1.638,1.818 2.857,1.949l11.724,1.259l0,6.847c0,4.479 3.645,8.124 8.124,8.124l3.876,-0l-0,108.512l-15.106,15.105c-1.431,1.431 -1.431,3.749 -0,5.18c1.43,1.429 3.748,1.43 5.179,-0l19.307,-19.308c5.146,-5.146 13.478,-5.147 18.626,0c5.135,5.136 5.135,13.492 -0,18.627l-30.559,30.558c-5.134,5.136 -13.491,5.137 -18.626,0c-5.136,-5.135 -5.136,-13.491 0,-18.626l0.899,-0.898c1.429,-1.431 1.429,-3.75 -0,-5.18c-1.431,-1.429 -3.749,-1.429 -5.18,0l-0.898,0.899c-7.991,7.991 -7.991,20.993 -0,28.984c0.71,0.71 1.462,1.355 2.245,1.939l-9.759,30.001l-5.77,-0c-2.023,-0 -3.662,1.639 -3.662,3.662c0,2.023 1.639,3.662 3.662,3.662l242.676,0c2.023,0 3.662,-1.639 3.662,-3.662c0,-2.023 -1.64,-3.661 -3.662,-3.661Zm-82.059,-21.543l-72.199,0l-0,-14.217l72.199,-0l0,14.217Zm-13.153,-43.068l-37.532,-14.561l33.767,-14.536l3.765,29.097Zm-5.195,-40.144l-29.06,-14.027l25.429,-14.027l3.631,28.054Zm-8.852,-68.397l3.596,27.789l-20.352,-13.198l16.756,-14.591Zm-9.892,-1.099l-8.751,7.621l0.986,-7.621l7.765,0Zm-10.611,21.99l21.063,13.658l-24.586,13.562l3.523,-27.22Zm-5.052,39.031l29.54,14.259l-33.237,14.307l3.697,-28.566Zm-5.066,39.146l39.772,15.429l-28.588,15.526c-0.025,0.014 -0.048,0.03 -0.072,0.045l-15.124,-0l4.012,-31Zm26.449,30.999l19.626,-10.658l1.38,10.658l-21.006,0Zm18.844,-139.756c0,0.577 -0.469,1.047 -1.047,1.047l-45.051,-0c-0.577,-0 -1.046,-0.47 -1.046,-1.047l-0,-20.054l47.144,5.063l-0,14.991l0,0Zm-113.123,-21.077l0,-6.061l16.674,1.791l-0,4.27c-0,0.441 -0.359,0.8 -0.8,0.8l-15.074,-0c-0.44,-0.001 -0.8,-0.36 -0.8,-0.8Zm37.861,141.419c7.99,-7.991 7.99,-20.992 -0,-28.984c-7.126,-7.125 -18.02,-7.817 -25.862,-2.567l0,-101.744l3.876,-0c4.479,-0 8.123,-3.645 8.123,-8.124l0,-3.484l34.658,3.722l-0,20.839c-0,4.616 3.755,8.371 8.37,8.371l6.412,0l-17.004,131.386l-4.598,-0c-3.147,-0 -5.707,2.56 -5.707,5.708l-0,15.834l-6.974,-0c-3.796,-0 -6.885,3.088 -6.885,6.884l0,14.658l-12.958,0l-10.787,-33.162l29.336,-29.337Zm-59.356,62.499l8.694,-26.728c1.832,0.518 3.721,0.781 5.611,0.781c3.3,-0.001 6.6,-0.792 9.589,-2.372l9.212,28.319l-33.106,-0Zm61.089,-0l-0,-14.218l99.915,-0l0,14.218l-99.915,-0Z" style="fill:#525252;fill-rule:nonzero;"/><g><path d="M226.215,37.396c1.537,-1.313 1.721,-3.624 0.408,-5.163c-1.312,-1.538 -3.622,-1.722 -5.162,-0.409l-7.906,6.745c-1.539,1.312 -1.722,3.623 -0.41,5.162c0.724,0.849 1.753,1.285 2.789,1.285c0.84,0 1.685,-0.288 2.375,-0.876l7.906,-6.744Z" style="fill:#525252;fill-rule:nonzero;"/><path d="M210.246,113.114l0,4.506c0,2.023 1.639,3.663 3.662,3.663c2.023,-0 3.662,-1.64 3.662,-3.663l0,-4.506c0,-2.022 -1.639,-3.662 -3.662,-3.662c-2.023,0 -3.662,1.64 -3.662,3.662Z" style="fill:#525252;fill-rule:nonzero;"/><path d="M25.09,188.76c-3.813,3.815 -3.813,10.02 0,13.835c3.823,3.823 10.012,3.825 13.836,-0c3.814,-3.815 3.814,-10.02 0,-13.835c-3.823,-3.823 -10.012,-3.824 -13.836,0Zm8.656,8.655c-0.957,0.958 -2.511,0.965 -3.476,0.001c-0.959,-0.959 -0.959,-2.518 -0,-3.476c0.957,-0.958 2.511,-0.965 3.476,-0c0.959,0.958 0.959,2.517 0,3.475Z" style="fill:#525252;fill-rule:nonzero;"/><path d="M67.63,173.89c3.823,-3.824 3.824,-10.011 0.001,-13.835c-3.824,-3.823 -10.012,-3.824 -13.835,0c-3.824,3.824 -3.824,10.011 -0,13.835c3.822,3.823 10.01,3.824 13.834,0Zm-8.656,-8.656c0.963,-0.963 2.518,-0.959 3.477,-0l-0,0c0.961,0.961 0.962,2.515 -0,3.477c-0.961,0.961 -2.515,0.96 -3.477,-0.001c-0.959,-0.959 -0.962,-2.513 0,-3.476Z" style="fill:#525252;fill-rule:nonzero;"/><path d="M42.199,176.45c-1.431,1.43 -1.431,3.748 -0,5.178l3.857,3.858c0.715,0.716 1.653,1.073 2.59,1.073c0.937,0 1.875,-0.357 2.589,-1.072c1.431,-1.43 1.431,-3.749 0.001,-5.179l-3.858,-3.858c-1.431,-1.43 -3.75,-1.43 -5.179,-0Z" style="fill:#525252;fill-rule:nonzero;"/><path d="M119.654,56.927l17.051,-0c2.023,-0 3.663,-1.64 3.663,-3.662c-0,-2.023 -1.64,-3.662 -3.663,-3.662l-17.051,-0c-2.023,-0 -3.662,1.639 -3.662,3.662c-0,2.022 1.639,3.662 3.662,3.662Z" style="fill:#525252;fill-rule:nonzero;"/></g></g></svg>