<?xml version="1.0" encoding="UTF-8" standalone="no"?><!DOCTYPE svg PUBLIC "-//W3C//DTD SVG 1.1//EN" "http://www.w3.org/Graphics/SVG/1.1/DTD/svg11.dtd"><svg width="100%" height="100%" viewBox="0 0 250 250" version="1.1" xmlns="http://www.w3.org/2000/svg" xmlns:xlink="http://www.w3.org/1999/xlink" xml:space="preserve" xmlns:serif="http://www.serif.com/" style="fill-rule:evenodd;clip-rule:evenodd;stroke-linejoin:round;stroke-miterlimit:2;"><g><path d="M212.403,108.491c-1.745,-4.896 -6.385,-8.162 -11.583,-8.153c-5.193,0.016 -9.815,3.298 -11.54,8.197l-25.346,-0l0,-16.394l16.394,0c2.263,0.001 4.098,-1.833 4.098,-4.096l0,-17.151c6.402,-2.263 9.758,-9.287 7.495,-15.69c-2.264,-6.402 -9.288,-9.758 -15.691,-7.494c-6.403,2.263 -9.758,9.287 -7.494,15.69c1.237,3.502 3.992,6.256 7.494,7.494l-0,13.051l-12.296,0l0,-8.197c0.001,-2.262 -1.833,-4.097 -4.096,-4.098l-8.199,0l0,-21.248c6.402,-2.263 9.758,-9.288 7.495,-15.69c-2.264,-6.403 -9.288,-9.758 -15.691,-7.495c-6.402,2.264 -9.758,9.288 -7.494,15.691c1.237,3.501 3.992,6.256 7.494,7.494l-0,21.248l-16.394,-0l0,-65.43c0.001,-2.263 -1.833,-4.098 -4.096,-4.099l-0.002,0c-50.559,0 -90.164,36.605 -90.164,83.332c-0,22.197 8.811,51.586 22.997,76.692c2.548,4.507 5.872,9.246 9.39,14.265c7.439,10.604 15.717,22.529 16.617,32.909c-3.15,2.227 -4.994,5.87 -4.923,9.727c0.012,2.771 0.969,5.456 2.713,7.609c-2.426,2.394 -3.782,5.665 -3.761,9.073c0.007,6.787 5.507,12.288 12.295,12.295l69.672,0c6.833,-0.042 12.339,-5.616 12.297,-12.45c-0.001,-0.044 -0.002,-0.089 -0.002,-0.133c-0.003,-3.334 -1.365,-6.522 -3.772,-8.828c1.766,-2.237 2.726,-5.004 2.723,-7.854c-0.012,-6.492 -5.284,-11.744 -11.775,-11.731c-0.173,0 -0.347,0.004 -0.52,0.012l-29.689,-0l0,-78.013l8.197,0l-0,12.295c-0.001,2.263 1.833,4.098 4.096,4.099l12.297,-0l0,4.853c-6.402,2.263 -9.757,9.288 -7.493,15.69c2.264,6.402 9.288,9.757 15.69,7.493c6.402,-2.263 9.757,-9.288 7.493,-15.69c-1.237,-3.501 -3.992,-6.255 -7.493,-7.493l0,-8.952c0.001,-2.263 -1.833,-4.098 -4.096,-4.098l-12.297,-0l-0,-8.197l16.393,0c2.263,0.001 4.098,-1.833 4.098,-4.096l0,-8.199l25.346,0c2.276,6.385 9.296,9.717 15.682,7.441c6.384,-2.275 9.716,-9.295 7.441,-15.681Zm-32.075,-53.235c2.263,-0 4.098,1.835 4.098,4.098c0,2.263 -1.835,4.098 -4.098,4.098c-2.263,0 -4.098,-1.835 -4.098,-4.098c0.002,-2.262 1.836,-4.096 4.098,-4.098Zm-108.443,116.447c-3.402,-4.851 -6.613,-9.429 -8.965,-13.592c-13.325,-23.585 -21.936,-52.106 -21.936,-72.658c-0,-40.871 33.881,-73.154 77.868,-75.047l0,28.631c-1.088,0.082 -2.198,0.181 -3.385,0.326c-1.74,0.212 -3.152,1.507 -3.514,3.222l-1.249,5.94c-1.029,0.244 -2.054,0.52 -3.078,0.828l-4.085,-4.555c-1.17,-1.309 -3.044,-1.726 -4.658,-1.036c-4.587,1.978 -8.917,4.506 -12.894,7.528c-1.4,1.055 -1.973,2.885 -1.427,4.551l1.882,5.731c-0.775,0.729 -1.529,1.485 -2.26,2.257l-5.725,-1.881c-1.665,-0.539 -3.49,0.032 -4.551,1.425c-3.026,3.978 -5.556,8.309 -7.534,12.9c-0.689,1.614 -0.272,3.488 1.036,4.658l4.557,4.083c-0.306,1.013 -0.58,2.027 -0.822,3.045l-6.373,1.273c-1.916,0.382 -3.296,2.065 -3.296,4.018l-0,13.976c-0,1.954 1.38,3.636 3.296,4.018l6.373,1.273c0.243,1.016 0.517,2.032 0.823,3.045l-4.559,4.083c-1.306,1.171 -1.723,3.044 -1.036,4.659c1.978,4.589 4.508,8.921 7.534,12.899c1.06,1.395 2.886,1.966 4.551,1.425l5.725,-1.881c0.733,0.772 1.485,1.529 2.26,2.257l-1.882,5.723c-0.546,1.666 0.027,3.494 1.425,4.551c3.977,3.027 8.309,5.557 12.898,7.536c1.614,0.686 3.486,0.269 4.659,-1.036l4.084,-4.555c1.023,0.309 2.049,0.585 3.078,0.829l1.247,5.935c0.36,1.717 1.773,3.014 3.514,3.226c1.189,0.146 2.299,0.244 3.387,0.326l0,45.4l-29.042,0c-1.675,-12.078 -10.231,-24.364 -17.926,-35.336Zm14.181,-71.365c0.026,18.772 14.132,34.538 32.786,36.643l0,14.094l-0.678,-3.226c-0.342,-1.634 -1.641,-2.897 -3.284,-3.194c-2.429,-0.442 -4.817,-1.086 -7.139,-1.925c-0.446,-0.158 -0.915,-0.239 -1.387,-0.24c-1.165,-0 -2.275,0.496 -3.052,1.365l-3.854,4.298c-2.136,-1.067 -4.197,-2.277 -6.17,-3.622l1.78,-5.415c0.521,-1.587 0.027,-3.331 -1.247,-4.41c-1.89,-1.6 -3.645,-3.354 -5.245,-5.243c-1.083,-1.266 -2.821,-1.756 -4.405,-1.241l-5.413,1.782c-1.345,-1.974 -2.556,-4.036 -3.624,-6.172l4.302,-3.854c1.241,-1.114 1.685,-2.868 1.123,-4.439c-0.838,-2.322 -1.482,-4.711 -1.925,-7.139c-0.299,-1.657 -1.581,-2.961 -3.232,-3.29l-5.73,-1.146l0,-7.252l5.73,-1.144c1.65,-0.329 2.933,-1.634 3.232,-3.29c0.443,-2.431 1.087,-4.821 1.924,-7.145c0.563,-1.57 0.119,-3.325 -1.124,-4.438l-4.299,-3.851c1.069,-2.135 2.279,-4.197 3.622,-6.171l5.415,1.781c1.584,0.514 3.322,0.025 4.405,-1.241c1.604,-1.891 3.36,-3.648 5.249,-5.255c1.269,-1.077 1.76,-2.817 1.241,-4.399l-1.778,-5.415c1.973,-1.343 4.034,-2.553 6.168,-3.621l3.854,4.298c1.115,1.24 2.868,1.684 4.438,1.125c2.323,-0.84 4.711,-1.484 7.14,-1.926c1.643,-0.295 2.941,-1.556 3.284,-3.19l0.679,-3.225l0,14.089c-18.654,2.106 -32.76,17.871 -32.786,36.644Zm32.786,-28.362l0,56.723c-15.663,-2.243 -26.543,-16.758 -24.301,-32.422c1.804,-12.598 11.703,-22.497 24.301,-24.301Zm43.033,163.752c-0.002,2.262 -1.836,4.096 -4.098,4.098l-69.672,0c-2.305,-0.039 -4.142,-1.939 -4.103,-4.244c0.001,-0.047 0.002,-0.095 0.004,-0.142c0.002,-2.263 1.836,-4.097 4.099,-4.099l69.672,0c2.305,0.039 4.142,1.939 4.103,4.244c-0.001,0.048 -0.002,0.095 -0.005,0.143Zm-5.147,-20.492c2.065,-0.19 3.893,1.33 4.083,3.394c0.013,0.138 0.018,0.277 0.016,0.416c-0.002,2.262 -1.836,4.096 -4.099,4.098l-67.575,0c-2.304,-0.038 -4.141,-1.938 -4.103,-4.243c0.001,-0.048 0.003,-0.096 0.005,-0.143c0.088,-2.043 1.815,-3.628 3.858,-3.54c0.081,0.003 0.161,0.009 0.24,0.018l67.575,-0l0,0Zm-1,-57.521c2.263,-0 4.098,1.835 4.098,4.098c0,2.263 -1.835,4.098 -4.098,4.098c-2.264,0 -4.099,-1.835 -4.099,-4.098c0.002,-2.262 1.836,-4.096 4.099,-4.098Zm-8.197,-122.951c2.263,-0 4.098,1.835 4.098,4.098c0,2.264 -1.835,4.099 -4.098,4.099c-2.263,-0 -4.098,-1.835 -4.098,-4.099c0.002,-2.262 1.836,-4.096 4.098,-4.098Zm8.197,86.065l-28.689,0l0,-40.983l28.689,-0l-0,40.983Zm45.082,-4.098c-2.264,0 -4.099,-1.835 -4.099,-4.098c0,-2.264 1.835,-4.099 4.099,-4.099c2.263,0 4.098,1.835 4.098,4.099c-0.002,2.262 -1.836,4.096 -4.098,4.098Z" style="fill:#525252;fill-rule:nonzero;"/><path d="M162.475,189.461c-1.445,2.584 -2.723,5.258 -3.827,8.005l7.62,3.018c0.976,-2.424 2.106,-4.782 3.384,-7.06l-7.177,-3.963Z" style="fill:#525252;fill-rule:nonzero;"/><path d="M171.695,175.025c-1.611,2.313 -3.218,4.666 -4.755,7.044l6.88,4.45c1.489,-2.297 3.044,-4.57 4.603,-6.812l-6.728,-4.682Z" style="fill:#525252;fill-rule:nonzero;"/><path d="M181.018,161.389c-1.382,2.193 -2.923,4.462 -4.538,6.792l6.732,4.675c1.691,-2.434 3.3,-4.807 4.743,-7.104l-6.937,-4.363Z" style="fill:#525252;fill-rule:nonzero;"/><path d="M188.709,147.105c-1.175,2.457 -2.403,4.886 -3.684,7.288l7.228,3.866c1.34,-2.509 2.625,-5.05 3.852,-7.624l-7.396,-3.53Z" style="fill:#525252;fill-rule:nonzero;"/><path d="M195.11,132.064c-0.952,2.533 -1.967,5.071 -3.04,7.588l7.545,3.21c1.117,-2.629 2.172,-5.268 3.168,-7.916l-7.673,-2.882Z" style="fill:#525252;fill-rule:nonzero;"/><path d="M213.111,84.637l-8.197,0.064l0.004,0.752c0,2.286 -0.106,4.715 -0.318,7.212l8.168,0.689c0.23,-2.725 0.347,-5.383 0.347,-7.901l-0.004,-0.816Z" style="fill:#525252;fill-rule:nonzero;"/><path d="M211.024,67.191l-7.981,1.865c0.599,2.562 1.054,5.156 1.365,7.768l8.141,-0.968c-0.348,-2.914 -0.857,-5.807 -1.525,-8.665Z" style="fill:#525252;fill-rule:nonzero;"/><path d="M205.132,50.629l-7.368,3.586c1.152,2.367 2.173,4.797 3.058,7.276l7.72,-2.745c-0.985,-2.767 -2.123,-5.477 -3.41,-8.117Z" style="fill:#525252;fill-rule:nonzero;"/><path d="M195.757,35.788l-6.42,5.099c1.64,2.066 3.17,4.216 4.583,6.444l6.927,-4.379c-1.568,-2.476 -3.268,-4.867 -5.09,-7.164Z" style="fill:#525252;fill-rule:nonzero;"/><path d="M183.474,23.281l-5.223,6.316c2.037,1.685 3.987,3.474 5.841,5.359l5.843,-5.747c-2.051,-2.085 -4.208,-4.063 -6.461,-5.928Z" style="fill:#525252;fill-rule:nonzero;"/><path d="M168.973,13.512l-3.898,7.212c2.341,1.265 4.633,2.649 6.81,4.114l4.575,-6.804c-2.396,-1.608 -4.913,-3.129 -7.487,-4.522Z" style="fill:#525252;fill-rule:nonzero;"/><path d="M152.908,6.712l-2.481,7.813c2.553,0.808 5.065,1.737 7.468,2.757l3.206,-7.54c-2.639,-1.125 -5.397,-2.142 -8.193,-3.03Z" style="fill:#525252;fill-rule:nonzero;"/><path d="M135.904,2.95l-1.048,8.132c2.643,0.341 5.288,0.801 7.862,1.373l1.773,-8.004c-2.811,-0.621 -5.701,-1.125 -8.587,-1.501Z" style="fill:#525252;fill-rule:nonzero;"/><rect x="8.197" y="223.288" width="8.197" height="8.197" style="fill:#525252;"/><rect x="8.197" y="239.682" width="8.197" height="8.197" style="fill:#525252;"/><rect x="16.393" y="231.485" width="8.197" height="8.197" style="fill:#525252;"/><rect x="0" y="231.485" width="8.197" height="8.197" style="fill:#525252;"/><rect x="233.607" y="1.977" width="8.197" height="8.197" style="fill:#525252;"/><rect x="233.607" y="18.37" width="8.197" height="8.197" style="fill:#525252;"/><rect x="241.803" y="10.174" width="8.197" height="8.197" style="fill:#525252;"/><rect x="225.41" y="10.174" width="8.197" height="8.197" style="fill:#525252;"/></g></svg>