<?xml version="1.0" encoding="UTF-8" standalone="no"?><!DOCTYPE svg PUBLIC "-//W3C//DTD SVG 1.1//EN" "http://www.w3.org/Graphics/SVG/1.1/DTD/svg11.dtd"><svg width="100%" height="100%" viewBox="0 0 250 250" version="1.1" xmlns="http://www.w3.org/2000/svg" xmlns:xlink="http://www.w3.org/1999/xlink" xml:space="preserve" xmlns:serif="http://www.serif.com/" style="fill-rule:evenodd;clip-rule:evenodd;stroke-linejoin:round;stroke-miterlimit:2;"><g><g><path d="M229.166,166.667c-2.304,0 -4.166,1.867 -4.166,4.167l-0,70.833l-29.167,-0c-2.304,-0 -4.166,1.866 -4.166,4.166c-0,2.3 1.862,4.167 4.166,4.167l33.334,-0c2.304,-0 4.166,-1.867 4.166,-4.167l0,-74.999c-0,-2.3 -1.863,-4.167 -4.167,-4.167Z" style="fill:#525252;fill-rule:nonzero;"/><path d="M216.666,204.167l-0,-33.333c-0,-2.3 -1.863,-4.167 -4.167,-4.167l-24.999,0c-2.305,0 -4.167,1.867 -4.167,4.167l0,33.333c0,2.3 1.862,4.166 4.167,4.166l24.999,0c2.304,0 4.167,-1.866 4.167,-4.166Zm-8.333,-4.167l-16.667,-0l0,-25l16.667,0l-0,25Z" style="fill:#525252;fill-rule:nonzero;"/><path d="M162.5,70.834c2.304,0 4.166,-1.866 4.166,-4.166l0,-20.833c0,-2.3 -1.862,-4.167 -4.166,-4.167l-124.999,0c-2.304,0 -4.167,1.867 -4.167,4.167l0,145.832c0,2.3 1.863,4.166 4.167,4.166c2.304,0 4.166,-1.866 4.166,-4.166l0,-8.333l4.167,-0c2.304,-0 4.166,-1.867 4.166,-4.167c0,-2.3 -1.862,-4.166 -4.166,-4.166l-4.167,-0l0,-25l16.667,-0l-0,16.666c-0,2.3 1.862,4.167 4.166,4.167c2.304,-0 4.166,-1.867 4.166,-4.167l0,-16.666l16.667,-0c2.304,-0 4.166,-1.867 4.166,-4.167c2.304,0 4.167,-1.866 4.167,-4.166l-0,-25l16.666,0c0,2.3 1.862,4.167 4.167,4.167c2.304,-0 4.166,-1.867 4.166,-4.167c2.304,0 4.167,-1.867 4.167,-4.166c-0,-2.3 -1.863,-4.167 -4.167,-4.167l0,-25l16.666,0l0,8.334c0,2.3 1.863,4.166 4.167,4.166c2.304,0 4.166,-1.866 4.166,-4.166l0,-8.335l8.334,0c2.304,0 4.166,-1.866 4.166,-4.166c0,-2.3 -1.862,-4.167 -4.166,-4.167l-8.334,0l0,-24.999l16.667,-0l-0,16.666c0.002,2.3 1.865,4.166 4.169,4.166Zm-104.166,70.833l-16.667,0l0,-24.999l16.667,-0l-0,24.999l0,0Zm0,-33.333l-16.667,0l0,-25l16.667,0l-0,25l0,0Zm0,-33.333l-16.667,-0l0,-25l16.667,0l-0,25l0,-0Zm25,66.666l-16.667,0l0,-24.999l16.667,-0l-0,24.999Zm-0,-33.333l-16.667,0l0,-25l16.667,0l-0,25Zm-0,-33.333l-16.667,-0l0,-25l16.667,0l-0,25Zm25,33.333l-16.667,0l0,-25l16.667,0l-0,25Zm-0,-33.333l-16.667,-0l0,-25l16.667,0l-0,25Zm24.999,-0l-16.666,-0l0,-25l16.666,0l0,25Z" style="fill:#525252;fill-rule:nonzero;"/><path d="M20.834,212.5c2.304,-0 4.167,-1.867 4.167,-4.167l-0,-174.998l29.166,-0c2.304,-0 4.167,-1.867 4.167,-4.167l-0,-12.5l29.166,0c2.304,0 4.166,-1.866 4.166,-4.166l0,-4.167l16.667,-0l-0,4.166c-0,2.3 1.862,4.167 4.166,4.167l29.166,-0l0,8.333l-70.831,0c-2.304,0 -4.167,1.867 -4.167,4.167c0,2.3 1.863,4.166 4.167,4.166l104.166,0l-0,16.667c-0,2.299 1.862,4.166 4.166,4.166c2.304,0 4.167,-1.867 4.167,-4.166l-0,-20.833c-0,-2.3 -1.863,-4.166 -4.167,-4.166l-29.166,-0l-0,-12.5c-0,-2.3 -1.862,-4.167 -4.167,-4.167l-29.166,0l0,-4.167c0,-2.299 -1.862,-4.166 -4.166,-4.166l-25,-0c-2.304,-0 -4.167,1.867 -4.167,4.166l0,4.167l-29.166,-0c-2.304,-0 -4.166,1.867 -4.166,4.166l-0,12.5l-29.168,0c-2.304,0 -4.166,1.867 -4.166,4.167l-0,179.165c-0.001,2.3 1.862,4.167 4.166,4.167Z" style="fill:#525252;fill-rule:nonzero;"/><path d="M245.833,91.668l-29.167,-0l0,-4.167c0,-2.3 -1.862,-4.166 -4.166,-4.166l-16.667,-0c-2.304,-0 -4.166,1.866 -4.166,4.166l-0,8.334c-0,2.299 1.862,4.166 4.166,4.166c2.305,0 4.167,-1.867 4.167,-4.166l-0,-4.167l8.333,0l0,4.167c0,2.299 1.863,4.166 4.167,4.166l29.166,0l0,56.608l-63.72,-63.72c-1.63,-1.629 -4.263,-1.629 -5.892,-0c-1.629,1.629 -1.629,4.263 0,5.891l70.833,70.833c0.796,0.796 1.862,1.221 2.946,1.221c0.537,-0 1.079,-0.104 1.595,-0.317c1.559,-0.646 2.571,-2.167 2.571,-3.85l0,-70.833c0,-2.3 -1.862,-4.166 -4.166,-4.166Z" style="fill:#525252;fill-rule:nonzero;"/><path d="M179.166,233.333l-41.666,0c-2.304,0 -4.167,1.867 -4.167,4.167l0,4.166l-41.666,0l0,-58.332c0,-2.3 -1.862,-4.167 -4.166,-4.167c-2.304,0 -4.167,1.867 -4.167,4.167l0,62.499c0,2.3 1.863,4.167 4.167,4.167l49.999,-0c2.305,-0 4.167,-1.867 4.167,-4.167l-0,-4.166l33.333,-0l0,4.166c0,2.3 1.862,4.167 4.167,4.167c2.304,-0 4.166,-1.867 4.166,-4.167l0,-8.333c0,-2.3 -1.863,-4.167 -4.167,-4.167Z" style="fill:#525252;fill-rule:nonzero;"/><path d="M248.778,1.222c-1.629,-1.629 -4.262,-1.629 -5.891,0l-241.665,241.665c-1.629,1.63 -1.629,4.263 -0,5.892c0.812,0.812 1.879,1.221 2.945,1.221c1.067,-0 2.134,-0.409 2.946,-1.221l241.665,-241.665c1.629,-1.629 1.629,-4.262 0,-5.892Z" style="fill:#525252;fill-rule:nonzero;"/><path d="M170.833,225c2.304,-0 4.167,-1.867 4.167,-4.167l-0,-49.999c-0,-2.3 -1.863,-4.167 -4.167,-4.167l-25,0c-2.304,0 -4.166,1.867 -4.166,4.167l-0,49.999c-0,2.3 1.862,4.167 4.166,4.167c2.305,-0 4.167,-1.867 4.167,-4.167l-0,-45.833l16.666,0l0,16.666l-4.166,0c-2.304,0 -4.167,1.867 -4.167,4.167c0,2.3 1.863,4.166 4.167,4.166l4.166,0l0,20.834c0.001,2.3 1.863,4.167 4.167,4.167Z" style="fill:#525252;fill-rule:nonzero;"/><path d="M104.167,166.667c-2.304,0 -4.166,1.867 -4.166,4.167l-0,33.333c-0,2.3 1.862,4.166 4.166,4.166l25,0c2.304,0 4.166,-1.866 4.166,-4.166l0,-33.333c0,-2.3 -1.862,-4.167 -4.166,-4.167l-25,0Zm20.833,33.333l-16.666,-0l-0,-25l16.666,0l0,25Z" style="fill:#525252;fill-rule:nonzero;"/></g></g></svg>