<?xml version="1.0" encoding="UTF-8" standalone="no"?><!DOCTYPE svg PUBLIC "-//W3C//DTD SVG 1.1//EN" "http://www.w3.org/Graphics/SVG/1.1/DTD/svg11.dtd"><svg width="100%" height="100%" viewBox="0 0 250 250" version="1.1" xmlns="http://www.w3.org/2000/svg" xmlns:xlink="http://www.w3.org/1999/xlink" xml:space="preserve" xmlns:serif="http://www.serif.com/" style="fill-rule:evenodd;clip-rule:evenodd;stroke-linejoin:round;stroke-miterlimit:2;"><g><g><path d="M249.778,158.762c0.149,-0.734 0.222,-1.484 0.222,-2.234c0,-6.266 -5.101,-11.367 -11.371,-11.367l-4.758,0l0,-12.097c0,-19.136 -12.205,-35.431 -29.217,-41.636c5.512,-4.44 9.056,-11.234 9.056,-18.847c0,-13.342 -10.851,-24.193 -24.193,-24.193c-13.343,-0 -24.193,10.851 -24.193,24.193c-0,7.613 3.544,14.407 9.056,18.847c-17.012,6.205 -29.217,22.5 -29.217,41.636l-0,12.097l-9.96,0l-1.254,-9.629c-0.786,-6.004 -5.94,-10.532 -11.996,-10.532l-1.536,0c-1.629,-6.214 -7.04,-11.04 -13.835,-12.012l-19.02,-2.718c-3.137,-0.443 -6.161,-1.641 -8.741,-3.459l-29.04,-20.411c-0.48,-0.339 -1.004,-0.585 -1.5,-0.891c7.278,-4.182 12.205,-12.012 12.205,-20.992c0,-13.343 -10.851,-24.193 -24.193,-24.193c-13.343,-0 -24.193,10.85 -24.193,24.193c-0,6.875 2.895,13.076 7.516,17.484c-11.363,3.653 -19.613,14.31 -19.613,26.87l-0,50.318c-0,6.96 2.617,13.399 6.911,18.375l-6.786,54.306c-0.536,4.274 0.625,8.496 3.27,11.903c2.649,3.403 6.484,5.572 10.81,6.109c0.646,0.076 1.291,0.117 1.928,0.117c8.117,-0 14.996,-6.077 15.996,-14.129l5.943,-47.536l6.617,0.552c2.072,0.174 3.697,1.936 3.697,4.016l0,40.488c0,7.988 5.448,14.842 12.948,16.298c1.052,0.206 2.109,0.307 3.161,0.307c3.734,-0 7.355,-1.275 10.27,-3.678c3.738,-3.085 5.879,-7.621 5.879,-12.447l0,-46.532c0,-13.403 -9.544,-25.048 -22.689,-27.677l-9.569,-1.915l0,-32.718l13.428,9.355c5.661,3.947 12.262,6.544 19.084,7.52l21.665,3.101c5.492,0.794 10.794,-1.27 14.371,-5.331c1.686,-1.911 2.815,-4.189 3.448,-6.609l1.568,0c2.016,0 3.738,1.508 3.996,3.508l10.681,81.887c-6.693,1.959 -11.629,8.088 -11.629,15.411c0,8.895 7.234,16.129 16.129,16.129c8.895,-0 16.129,-7.234 16.129,-16.129c0,-2.952 -0.855,-5.682 -2.242,-8.065l60.939,0c-1.391,2.383 -2.246,5.113 -2.246,8.065c0,8.895 7.234,16.129 16.129,16.129c8.895,-0 16.129,-7.234 16.129,-16.129c-0,-8.895 -7.234,-16.129 -16.129,-16.129l-85.168,-0l-2.105,-16.129l98.644,0l8.568,-42.85Zm-213.485,-110.374c8.895,-0 16.129,7.234 16.129,16.129c-0,8.895 -7.234,16.129 -16.129,16.129c-8.895,-0 -16.129,-7.234 -16.129,-16.129c-0,-8.895 7.234,-16.129 16.129,-16.129Zm-12.161,186.482c-0.541,4.338 -4.553,7.576 -8.936,7.008c-2.209,-0.275 -4.088,-1.331 -5.431,-3.057c-1.323,-1.705 -1.903,-3.814 -1.637,-5.955l6.149,-49.213c3.476,2.004 7.399,3.31 11.605,3.657l4.149,0.347l-5.899,47.213Zm86.757,-100.535c-1.799,2.044 -4.456,3.08 -7.182,2.681l-21.669,-3.101c-5.584,-0.794 -10.983,-2.923 -15.612,-6.149l-31.859,-22.201l-4.613,6.613l10.371,7.225l0,44.951l16.048,3.214c9.395,1.879 16.21,10.193 16.21,19.77l-0,46.532c-0,2.415 -1.073,4.681 -2.944,6.225c-1.899,1.561 -4.302,2.142 -6.762,1.678c-3.661,-0.714 -6.423,-4.315 -6.423,-8.383l-0,-40.488c-0,-6.241 -4.871,-11.536 -11.089,-12.048l-18.81,-1.572c-10.367,-0.867 -18.488,-9.686 -18.488,-20.093l0,-50.318c0,-11.117 9.045,-20.161 20.161,-20.161l3.375,0c4.871,0 9.549,1.48 13.536,4.282l29.04,20.411c3.621,2.545 7.855,4.222 12.242,4.847l19.02,2.718c3.847,0.552 6.96,3.488 7.395,6.984c0.299,2.358 -0.395,4.629 -1.947,6.383Zm131.047,22.193c-0,0.222 -0.021,0.435 -0.065,0.649l-2.435,12.177l-13.629,0l-0,-16.129l12.822,0c1.823,0 3.307,1.48 3.307,3.303Zm-56.451,-3.303l-0,16.129l-24.194,0l0,-16.129l24.194,0Zm-8.085,-54.326l7.202,16.807l-5.827,4.657c-1.827,-6.677 -3.185,-13.484 -4.064,-20.399c0.879,-0.395 1.778,-0.742 2.689,-1.065Zm12.117,-2.124c1.403,-0 2.782,0.1 4.145,0.254l-4.145,9.673l-4.145,-9.673c1.363,-0.154 2.742,-0.254 4.145,-0.254Zm14.802,3.189c-0.879,6.915 -2.238,13.722 -4.064,20.399l-5.827,-4.657l7.202,-16.802c0.915,0.318 1.814,0.665 2.689,1.06Zm-14.802,22.137l8.217,6.572c-1.899,5.613 -4.161,11.109 -6.737,16.488l-2.96,0c-2.581,-5.379 -4.839,-10.875 -6.738,-16.488l8.218,-6.572Zm-4.032,55.318l-0,16.129l-24.194,-0l0,-16.129l24.194,-0Zm8.064,-0l24.193,-0l0,16.129l-24.193,-0l0,-16.129Zm0,-8.065l0,-16.129l24.193,0l0,16.129l-24.193,0Zm32.258,-36.29l-0,12.097l-25.891,0c5.83,-12.964 9.822,-26.588 11.931,-40.645c8.48,6.649 13.96,16.96 13.96,28.548Zm-52.419,-60.483c-0,-8.895 7.234,-16.129 16.129,-16.129c8.895,0 16.129,7.234 16.129,16.129c-0,8.895 -7.234,16.129 -16.129,16.129c-8.895,0 -16.129,-7.234 -16.129,-16.129Zm-20.161,60.483c-0,-11.588 5.48,-21.899 13.959,-28.548c2.109,14.057 6.101,27.681 11.932,40.645l-25.891,0l-0,-12.097Zm-0,20.161l-0,16.129l-14.867,0l-2.105,-16.129l16.972,0Zm-4.032,80.645c-0,4.447 -3.617,8.064 -8.065,8.064c-4.447,0 -8.064,-3.617 -8.064,-8.064c-0,-4.448 3.617,-8.065 8.064,-8.065c4.448,0 8.065,3.617 8.065,8.065Zm88.708,-0c0,4.447 -3.617,8.064 -8.064,8.064c-4.448,0 -8.064,-3.617 -8.064,-8.064c-0,-4.448 3.616,-8.065 8.064,-8.065c4.447,0 8.064,3.617 8.064,8.065Zm-98.49,-56.451l13.814,-0l-0,16.129l-11.714,-0l-2.1,-16.129Zm86.394,16.129l-0,-16.129l12.016,-0l-3.226,16.129l-8.79,-0Z" style="fill-rule:nonzero;"/><path d="M80.647,56.452l16.129,0l-0,6.722c-0,5.186 4.222,9.407 9.407,9.407c2.948,0 5.762,-1.411 7.524,-3.766l9.278,-12.363l14.113,0c6.669,0 12.097,-5.427 12.097,-12.096l-0,-32.258c-0,-6.669 -5.428,-12.097 -12.097,-12.097l-56.451,0c-6.669,0 -12.096,5.428 -12.096,12.097l-0,32.258c-0,6.669 5.427,12.096 12.096,12.096Zm-4.032,-44.354c-0,-2.226 1.81,-4.032 4.032,-4.032l56.451,-0c2.222,-0 4.032,1.806 4.032,4.032l0,32.258c0,2.226 -1.81,4.032 -4.032,4.032l-18.145,-0l-11.697,15.593c-0.69,0.923 -2.412,0.354 -2.416,-0.807l0,-14.786l-24.193,-0c-2.222,-0 -4.032,-1.806 -4.032,-4.032l-0,-32.258Z" style="fill-rule:nonzero;"/><rect x="84.679" y="16.13" width="48.387" height="8.064"/><rect x="125.001" y="32.259" width="8.064" height="8.064"/><rect x="84.679" y="32.259" width="32.258" height="8.064"/></g></g></svg>