<?xml version="1.0" encoding="UTF-8" standalone="no"?><!DOCTYPE svg PUBLIC "-//W3C//DTD SVG 1.1//EN" "http://www.w3.org/Graphics/SVG/1.1/DTD/svg11.dtd"><svg width="100%" height="100%" viewBox="0 0 250 250" version="1.1" xmlns="http://www.w3.org/2000/svg" xmlns:xlink="http://www.w3.org/1999/xlink" xml:space="preserve" xmlns:serif="http://www.serif.com/" style="fill-rule:evenodd;clip-rule:evenodd;stroke-linejoin:round;stroke-miterlimit:2;"><g><path d="M202.56,128.662l10.888,0c1.703,8.43 9.168,14.797 18.093,14.797c10.178,0 18.459,-8.28 18.459,-18.459c0,-10.179 -8.281,-18.459 -18.459,-18.459c-8.925,-0 -16.39,6.367 -18.094,14.797l-10.887,-0c-0.871,-18.654 -8.352,-35.609 -20.152,-48.567l19.612,-19.611c3.86,2.811 8.606,4.475 13.737,4.475c12.898,0 23.391,-10.493 23.391,-23.392c0,-12.898 -10.493,-23.391 -23.391,-23.391c-12.899,-0 -23.392,10.493 -23.392,23.391c0,5.131 1.664,9.877 4.476,13.737l-19.612,19.611c-12.958,-11.799 -29.913,-19.28 -48.567,-20.151l0,-10.887c8.43,-1.704 14.797,-9.169 14.797,-18.094c0,-10.178 -8.28,-18.459 -18.459,-18.459c-10.179,0 -18.459,8.281 -18.459,18.459c-0,8.925 6.367,16.39 14.797,18.094l-0,10.887c-18.654,0.871 -35.609,8.351 -48.567,20.151l-19.61,-19.61c2.811,-3.86 4.476,-8.607 4.476,-13.738c-0,-7.789 -3.858,-15.042 -10.32,-19.403c-1.678,-1.131 -3.954,-0.689 -5.084,0.988c-1.131,1.676 -0.69,3.952 0.987,5.084c4.441,2.996 7.092,7.98 7.092,13.331c0,8.861 -7.209,16.07 -16.069,16.07c-8.861,-0 -16.069,-7.209 -16.069,-16.07c-0,-7.155 4.802,-13.515 11.678,-15.466c1.946,-0.552 3.076,-2.577 2.523,-4.523c-0.552,-1.945 -2.578,-3.074 -4.522,-2.523c-10.012,2.841 -17.003,12.098 -17.003,22.512c-0,12.9 10.494,23.394 23.393,23.394c5.131,-0 9.878,-1.665 13.738,-4.476l19.61,19.609c-11.8,12.959 -19.28,29.914 -20.151,48.567l-10.887,0c-1.704,-8.43 -9.169,-14.797 -18.094,-14.797c-10.178,0.001 -18.459,8.281 -18.459,18.46c0,10.179 8.281,18.459 18.459,18.459c8.925,0 16.39,-6.367 18.094,-14.797l10.887,0c0.871,18.654 8.352,35.609 20.152,48.567l-19.612,19.611c-3.86,-2.811 -8.606,-4.475 -13.737,-4.475c-12.898,-0 -23.391,10.493 -23.391,23.392c-0,12.898 10.493,23.391 23.391,23.391c12.899,0 23.392,-10.493 23.392,-23.391c-0,-5.131 -1.664,-9.877 -4.476,-13.737l19.612,-19.611c12.958,11.799 29.913,19.28 48.567,20.151l-0,10.887c-8.43,1.703 -14.797,9.168 -14.797,18.093c-0,10.179 8.28,18.46 18.459,18.46c10.179,0 18.459,-8.281 18.459,-18.459c0,-8.925 -6.367,-16.39 -14.797,-18.094l0,-10.887c18.654,-0.871 35.609,-8.351 48.567,-20.151l19.61,19.61c-2.811,3.86 -4.476,8.607 -4.476,13.738c0,12.899 10.494,23.393 23.394,23.393c12.899,0 23.393,-10.494 23.393,-23.393c0,-2.532 -0.403,-5.026 -1.198,-7.413c-0.64,-1.919 -2.715,-2.956 -4.632,-2.317c-1.919,0.64 -2.956,2.714 -2.317,4.633c0.546,1.638 0.824,3.353 0.824,5.096c-0,8.861 -7.209,16.07 -16.07,16.07c-8.86,-0 -16.069,-7.209 -16.069,-16.07c-0,-8.86 7.209,-16.069 16.069,-16.069c2.028,0 4.006,0.373 5.878,1.109c1.88,0.74 4.008,-0.187 4.748,-2.069c0.74,-1.882 -0.187,-4.008 -2.069,-4.748c-2.729,-1.072 -5.607,-1.616 -8.556,-1.616c-5.131,-0 -9.878,1.664 -13.738,4.476l-19.61,-19.61c11.798,-12.958 19.279,-29.913 20.15,-48.567Zm28.981,-14.797c6.14,-0 11.135,4.995 11.135,11.135c-0,6.14 -4.995,11.135 -11.135,11.135c-6.141,0 -11.136,-4.995 -11.136,-11.135c0,-6.14 4.996,-11.135 11.136,-11.135Zm-15.784,-95.689c8.86,-0 16.067,7.208 16.067,16.067c0,8.86 -7.208,16.068 -16.067,16.068c-8.86,0 -16.068,-7.208 -16.068,-16.068c0,-8.86 7.208,-16.067 16.068,-16.067Zm-101.892,0.283c-0,-6.14 4.995,-11.135 11.135,-11.135c6.14,0 11.135,4.995 11.135,11.135c0,6.141 -4.995,11.136 -11.135,11.136c-6.14,-0 -11.135,-4.996 -11.135,-11.136Zm-95.406,117.676c-6.14,0 -11.135,-4.995 -11.135,-11.135c0,-6.14 4.995,-11.135 11.135,-11.135c6.141,-0 11.135,4.995 11.135,11.135c0,6.14 -4.995,11.135 -11.135,11.135Zm106.541,-81.459c38.777,-0 70.324,31.547 70.324,70.324c0,38.777 -31.547,70.324 -70.324,70.324c-38.777,0 -70.324,-31.547 -70.324,-70.324c-0,-38.777 31.547,-70.324 70.324,-70.324Zm-90.757,177.148c-8.86,0 -16.067,-7.208 -16.067,-16.067c-0,-8.86 7.208,-16.068 16.067,-16.068c8.86,-0 16.068,7.208 16.068,16.068c-0,8.86 -7.208,16.067 -16.068,16.067Zm101.892,-0.283c0,6.14 -4.995,11.135 -11.135,11.135c-6.14,-0 -11.135,-4.995 -11.135,-11.135c-0,-6.141 4.995,-11.136 11.135,-11.136c6.14,0 11.135,4.996 11.135,11.136Z" style="fill:#525252;fill-rule:nonzero;"/><path d="M83.569,170.093l20.681,-0c0.012,-0 0.022,0.001 0.034,0.001c0.011,0 0.022,-0.001 0.033,-0.001l12.138,-0c2.023,-0 3.662,-1.64 3.662,-3.662c0,-2.023 -1.639,-3.662 -3.662,-3.662l-8.509,-0l-0,-6.202c-0,-2.022 -1.639,-3.662 -3.662,-3.662c-2.023,0 -3.662,1.64 -3.662,3.662l-0,6.202l-13.391,-0l0,-18.038c0,-8.86 7.207,-16.069 16.064,-16.069l43.409,0c8.858,0 16.064,7.209 16.064,16.069l-0,18.038l-13.391,-0l0,-6.202c0,-2.022 -1.639,-3.662 -3.662,-3.662c-2.023,0 -3.662,1.64 -3.662,3.662l0,6.202l-8.508,-0c-2.023,-0 -3.662,1.639 -3.662,3.662c-0,2.022 1.639,3.662 3.662,3.662l12.138,-0c0.011,-0 0.022,0.001 0.033,0.001c0.012,0 0.022,-0.001 0.034,-0.001l20.681,-0c2.023,-0 3.662,-1.64 3.662,-3.662l-0,-21.7c-0,-12.899 -10.492,-23.393 -23.388,-23.393l-2.719,-0c5.731,-5.187 9.339,-12.68 9.339,-21c-0,-15.618 -12.706,-28.324 -28.325,-28.324c-15.618,-0 -28.324,12.706 -28.324,28.324c0,8.32 3.608,15.813 9.339,21l-2.719,-0c-12.896,-0 -23.388,10.494 -23.388,23.393l0,21.7c-0.001,2.022 1.639,3.662 3.661,3.662Zm20.431,-69.755c0,-11.579 9.42,-21 21,-21c11.58,-0 21,9.42 21,21c0,11.579 -9.42,21 -21,21c-11.58,-0 -21,-9.421 -21,-21Z" style="fill:#525252;fill-rule:nonzero;"/></g></svg>