<?xml version="1.0" encoding="UTF-8" standalone="no"?><!DOCTYPE svg PUBLIC "-//W3C//DTD SVG 1.1//EN" "http://www.w3.org/Graphics/SVG/1.1/DTD/svg11.dtd"><svg width="100%" height="100%" viewBox="0 0 250 250" version="1.1" xmlns="http://www.w3.org/2000/svg" xmlns:xlink="http://www.w3.org/1999/xlink" xml:space="preserve" xmlns:serif="http://www.serif.com/" style="fill-rule:evenodd;clip-rule:evenodd;stroke-linejoin:round;stroke-miterlimit:2;"><g><g><path id="Shape" d="M125,0c-69.036,0 -125,55.964 -125,125c0,69.036 55.964,125 125,125c69.036,0 125,-55.964 125,-125c-0.078,-69.003 -55.997,-124.922 -125,-125Zm84.192,44.358c-7.456,3.375 -15.109,6.297 -22.917,8.75c-5.998,-15.253 -15.482,-28.891 -27.692,-39.825c19.265,5.825 36.698,16.53 50.609,31.075Zm-84.192,147.309c-36.819,-0 -66.667,-29.848 -66.667,-66.667c0,-36.819 29.848,-66.667 66.667,-66.667c36.819,0 66.667,29.848 66.667,66.667c-0.044,36.801 -29.866,66.623 -66.667,66.667Zm45.913,-125.834c3.555,-0.783 7.087,-1.657 10.595,-2.621c2.324,6.528 4.231,13.198 5.709,19.967c-4.483,-6.609 -9.986,-12.463 -16.304,-17.346Zm-9.817,-6.529c-9.824,-5.395 -20.738,-8.502 -31.929,-9.092l-0,-41.629c20.154,2.188 37.916,20.096 49.3,46.809c-5.725,1.55 -11.516,2.851 -17.371,3.904l-0,0.008Zm-40.263,-50.721l0,41.629c-11.19,0.587 -22.105,3.692 -31.929,9.084c-5.85,-1.045 -11.64,-2.346 -17.371,-3.904c11.384,-26.713 29.146,-44.621 49.3,-46.809Zm-41.746,57.25c-6.318,4.883 -11.821,10.737 -16.304,17.346c1.478,-6.769 3.385,-13.439 5.709,-19.967c3.505,0.962 7.037,1.835 10.595,2.621Zm-29.024,55l-41.625,0c0.883,-25.625 10.223,-50.239 26.562,-70c8.323,3.9 16.891,7.255 25.65,10.042c-6.742,19.284 -10.317,39.532 -10.587,59.958Zm-0,8.334c0.27,20.422 3.844,40.666 10.583,59.945c-8.758,2.792 -17.325,6.151 -25.646,10.055c-16.339,-19.761 -25.679,-44.375 -26.562,-70l41.625,-0Zm12.72,37.662c4.483,6.606 9.987,12.458 16.304,17.338c-3.555,0.783 -7.087,1.657 -10.595,2.621c-2.324,-6.526 -4.23,-13.192 -5.709,-19.959Zm26.121,23.875c9.824,5.392 20.739,8.497 31.929,9.084l0,41.629c-20.154,-2.188 -37.916,-20.096 -49.3,-46.809c5.725,-1.55 11.516,-2.851 17.371,-3.904Zm40.263,50.713l-0,-41.629c11.19,-0.587 22.105,-3.692 31.929,-9.084c5.85,1.047 11.64,2.349 17.371,3.904c-11.384,26.713 -29.146,44.621 -49.3,46.809Zm41.746,-57.25c6.318,-4.883 11.821,-10.737 16.304,-17.346c-1.478,6.769 -3.385,13.439 -5.709,19.967c-3.505,-0.962 -7.037,-1.835 -10.595,-2.621Zm29.025,-55l41.625,-0c-0.884,25.625 -10.224,50.239 -26.563,70c-8.323,-3.9 -16.891,-7.255 -25.65,-10.042c6.742,-19.284 10.317,-39.532 10.588,-59.958Zm-0,-8.334c-0.271,-20.422 -3.845,-40.666 -10.584,-59.945c8.758,-2.792 17.325,-6.151 25.646,-10.055c16.339,19.761 25.679,44.375 26.563,70l-41.625,0Zm-108.521,-107.55c-12.218,10.932 -21.709,24.571 -27.713,39.825c-7.801,-2.453 -15.447,-5.376 -22.896,-8.75c13.911,-14.546 31.344,-25.25 50.609,-31.075Zm-50.609,192.359c7.449,-3.374 15.095,-6.297 22.896,-8.75c6.004,15.254 15.495,28.893 27.713,39.825c-19.265,-5.825 -36.698,-16.53 -50.609,-31.075Zm117.775,31.075c12.218,-10.932 21.709,-24.571 27.713,-39.825c7.808,2.453 15.461,5.375 22.916,8.75c-13.916,14.548 -31.356,25.253 -50.629,31.075Z" style="fill:#525252;fill-rule:nonzero;"/><path id="Shape1" serif:id="Shape" d="M102.95,124.921c1.407,-0.003 2.797,-0.314 4.071,-0.913c2.938,-1.36 4.973,-4.131 5.392,-7.341l29.254,-0c6.903,-0 12.5,-5.597 12.5,-12.5l-0,-8.334c-0,-6.903 -5.597,-12.5 -12.5,-12.5l-29.254,0c-0.466,-3.434 -2.759,-6.344 -5.989,-7.599c-3.23,-1.255 -6.887,-0.657 -9.549,1.562l-18.492,15.416c-2.145,1.826 -3.379,4.503 -3.372,7.321c0.006,2.817 1.252,5.488 3.406,7.304l18.458,15.375c1.704,1.425 3.854,2.206 6.075,2.209Zm-19.617,-24.921c-0.002,-0.354 0.15,-0.692 0.417,-0.925l18.454,-15.371c0.206,-0.183 0.47,-0.287 0.746,-0.291c0.183,0.002 0.364,0.045 0.529,0.125c0.432,0.183 0.706,0.614 0.688,1.083l-0,2.879c-0,2.301 1.865,4.167 4.166,4.167l33.334,-0c2.301,-0 4.166,1.865 4.166,4.166l0,8.334c0,2.301 -1.865,4.166 -4.166,4.166l-33.334,0c-2.301,0 -4.166,1.866 -4.166,4.167l-0,2.879c0.001,0.465 -0.268,0.889 -0.688,1.086c-0.421,0.197 -0.918,0.133 -1.275,-0.165l-18.421,-15.346c-0.283,-0.236 -0.448,-0.585 -0.45,-0.954Z" style="fill:#525252;fill-rule:nonzero;"/><path id="Shape2" serif:id="Shape" d="M171.583,142.675l-18.458,-15.379c-2.662,-2.219 -6.319,-2.817 -9.549,-1.562c-3.23,1.255 -5.523,4.165 -5.989,7.599l-29.254,0c-6.903,0 -12.5,5.597 -12.5,12.5l0,8.334c0,6.903 5.597,12.5 12.5,12.5l29.254,-0c0.419,3.21 2.454,5.981 5.392,7.341c1.274,0.599 2.664,0.91 4.071,0.913c2.222,-0.005 4.372,-0.79 6.075,-2.217l18.492,-15.416c2.144,-1.826 3.376,-4.502 3.37,-7.319c-0.007,-2.816 -1.251,-5.487 -3.404,-7.302l0,0.008Zm-5.333,8.25l-18.454,15.371c-0.357,0.297 -0.853,0.362 -1.273,0.165c-0.42,-0.196 -0.689,-0.618 -0.69,-1.082l0,-2.879c0,-2.301 -1.865,-4.167 -4.166,-4.167l-33.334,0c-2.301,0 -4.166,-1.865 -4.166,-4.166l-0,-8.334c-0,-2.301 1.865,-4.166 4.166,-4.166l33.334,-0c2.301,-0 4.166,-1.866 4.166,-4.167l0,-2.879c-0.001,-0.465 0.268,-0.889 0.688,-1.086c0.421,-0.197 0.918,-0.133 1.275,0.165l18.421,15.35c0.282,0.235 0.447,0.583 0.45,0.95c0.002,0.354 -0.15,0.692 -0.417,0.925Z" style="fill:#525252;fill-rule:nonzero;"/></g></g></svg>